<svg width="16" height="16" viewBox="0 0 16 16" fill="none" xmlns="http://www.w3.org/2000/svg">
<path d="M10.0463 2.60004L10.1835 2.7285L10.3714 2.73472L13.1726 2.8274L13.2653 5.62859L13.2715 5.81647L13.4 5.95372L15.3152 8L13.4 10.0463L13.2715 10.1835L13.2653 10.3714L13.1726 13.1726L10.3714 13.2653L10.1835 13.2715L10.0463 13.4L8 15.3152L5.95372 13.4L5.81647 13.2715L5.62859 13.2653L2.8274 13.1726L2.73472 10.3714L2.7285 10.1835L2.60004 10.0463L0.684836 8L2.60004 5.95372L2.7285 5.81647L2.73472 5.62859L2.8274 2.8274L5.62859 2.73472L5.81647 2.7285L5.95372 2.60004L8 0.684836L10.0463 2.60004Z" fill="#119699" stroke="white"/>
</svg>
