<?xml version="1.0" encoding="UTF-8"?>
<!DOCTYPE svg PUBLIC "-//W3C//DTD SVG 1.1//EN" "http://www.w3.org/Graphics/SVG/1.1/DTD/svg11.dtd">
<svg xmlns="http://www.w3.org/2000/svg" xmlns:xlink="http://www.w3.org/1999/xlink">

    <symbol id="play" viewBox="0 0 96 96" fill="none" xmlns="http://www.w3.org/2000/svg">
        <path d="M49 5L61.8352 17.0131L79.4056 17.5944L79.9869 35.1648L92 48L79.9869 60.8352L79.4056 78.4056L61.8352 78.9869L49 91L36.1648 78.9869L18.5944 78.4056L18.0131 60.8352L6 48L18.0131 35.1648L18.5944 17.5944L36.1648 17.0131L49 5Z" fill="white"/>
        <path d="M59.6503 20.121L59.7876 20.2494L59.9754 20.2556L75.2394 20.7606L75.7444 36.0245L75.7506 36.2124L75.8791 36.3497L86.3152 47.5L75.8791 58.6503L75.7506 58.7876L75.7444 58.9754L75.2394 74.2394L59.9754 74.7444L59.7876 74.7506L59.6503 74.8791L48.5 85.3152L37.3497 74.8791L37.2124 74.7506L37.0245 74.7444L21.7606 74.2394L21.2556 58.9754L21.2494 58.7876L21.121 58.6503L10.6848 47.5L21.121 36.3497L21.2494 36.2124L21.2556 36.0245L21.7606 20.7606L37.0245 20.2556L37.2124 20.2494L37.3497 20.121L48.5 9.68483L59.6503 20.121Z" stroke="#119699"/>
        <path d="M61.986 13.775L62.1232 13.9035L62.3111 13.9097L81.4569 14.5431L82.0903 33.6889L82.0965 33.8768L82.225 34.014L95.3152 48L82.225 61.986L82.0965 62.1232L82.0903 62.3111L81.4569 81.4569L62.3111 82.0903L62.1232 82.0965L61.986 82.225L48 95.3152L34.014 82.225L33.8768 82.0965L33.6889 82.0903L14.5431 81.4569L13.9097 62.3111L13.9035 62.1232L13.775 61.986L0.684834 48L13.775 34.014L13.9035 33.8768L13.9097 33.6889L14.5431 14.5431L33.6889 13.9097L33.8768 13.9035L34.014 13.775L48 0.684834L61.986 13.775Z" stroke="white"/>
        <path fill-rule="evenodd" clip-rule="evenodd" d="M34.8335 48.0082C34.8335 40.1888 41.1921 33.8333 49.0002 33.8333C56.8082 33.8333 63.1668 40.1888 63.1668 48.0082C63.1668 55.8111 56.8082 62.1666 49.0002 62.1666C41.1921 62.1666 34.8335 55.8111 34.8335 48.0082ZM54.1964 49.4419C54.3468 49.2916 54.5383 49.0592 54.5793 49.0046C54.7981 48.7175 54.9075 48.3622 54.9075 48.0082C54.9075 47.6104 54.7844 47.2414 54.552 46.9407C54.5329 46.9217 54.4956 46.8811 54.447 46.8282C54.356 46.7292 54.2255 46.587 54.1007 46.4624C52.9794 45.2596 50.0531 43.2914 48.5216 42.69C48.2891 42.5957 47.7011 42.3894 47.3866 42.3757C47.0857 42.3757 46.7986 42.444 46.5251 42.5807C46.1832 42.772 45.9098 43.0727 45.7593 43.4281C45.6636 43.6741 45.5132 44.4122 45.5132 44.4259C45.3628 45.2323 45.2807 46.5444 45.2807 47.9931C45.2807 49.375 45.3628 50.631 45.4858 51.4511C45.4892 51.4545 45.501 51.5131 45.5193 51.6042C45.5748 51.8812 45.6906 52.4583 45.814 52.6949C46.1149 53.2689 46.7029 53.6243 47.3319 53.6243H47.3866C47.7968 53.6106 48.6583 53.2552 48.6583 53.2416C50.1078 52.6402 52.9657 50.7677 54.1144 49.5239L54.1964 49.4419Z" fill="#119699"/>
    </symbol>

    <symbol id="arrow-right" viewBox="0 0 33 26" fill="none" xmlns="http://www.w3.org/2000/svg">
        <path d="M30.8564 12.9551L1.64258 12.9551"  stroke-width="2.5" stroke-linecap="round" stroke-linejoin="round"/>
        <path d="M19.8105 2.00013L30.857 12.9992L19.8105 24"  stroke-width="2.5" stroke-linecap="round" stroke-linejoin="round"/>
    </symbol>

    <symbol id="arrow-left" viewBox="0 0 33 26" fill="none" xmlns="http://www.w3.org/2000/svg">
        <path d="M1.64307 13.0449L30.8569 13.0449"  stroke-width="2.5" stroke-linecap="round" stroke-linejoin="round"/>
        <path d="M12.689 23.9999L1.64247 13.0008L12.689 2"  stroke-width="2.5" stroke-linecap="round" stroke-linejoin="round"/>
    </symbol>

    <symbol id="category-path-1"  viewBox="0 0 20 21" fill="none" xmlns="http://www.w3.org/2000/svg">
        <path d="M14.1665 8.83317H15.8332C17.4998 8.83317 18.3332 7.99984 18.3332 6.33317V4.6665C18.3332 2.99984 17.4998 2.1665 15.8332 2.1665H14.1665C12.4998 2.1665 11.6665 2.99984 11.6665 4.6665V6.33317C11.6665 7.99984 12.4998 8.83317 14.1665 8.83317Z" stroke="#119699" stroke-width="1.5" stroke-miterlimit="10" stroke-linecap="round" stroke-linejoin="round"/>
        <path d="M14.1665 18.8332H15.8332C17.4998 18.8332 18.3332 17.9998 18.3332 16.3332V14.6665C18.3332 12.9998 17.4998 12.1665 15.8332 12.1665H14.1665C12.4998 12.1665 11.6665 12.9998 11.6665 14.6665V16.3332C11.6665 17.9998 12.4998 18.8332 14.1665 18.8332Z" stroke="#119699" stroke-width="1.5" stroke-miterlimit="10" stroke-linecap="round" stroke-linejoin="round"/>
        <path d="M4.1665 18.8332H5.83317C7.49984 18.8332 8.33317 17.9998 8.33317 16.3332V14.6665C8.33317 12.9998 7.49984 12.1665 5.83317 12.1665H4.1665C2.49984 12.1665 1.6665 12.9998 1.6665 14.6665V16.3332C1.6665 17.9998 2.49984 18.8332 4.1665 18.8332Z" stroke="#119699" stroke-width="1.5" stroke-miterlimit="10" stroke-linecap="round" stroke-linejoin="round"/>
    </symbol>

    <symbol id="category-path-2"  viewBox="0 0 20 21" fill="none" xmlns="http://www.w3.org/2000/svg">
        <path d="M4.1665 8.83317H5.83317C7.49984 8.83317 8.33317 7.99984 8.33317 6.33317V4.6665C8.33317 2.99984 7.49984 2.1665 5.83317 2.1665H4.1665C2.49984 2.1665 1.6665 2.99984 1.6665 4.6665V6.33317C1.6665 7.99984 2.49984 8.83317 4.1665 8.83317Z"  stroke-width="1.5" stroke-miterlimit="10" stroke-linecap="round" stroke-linejoin="round"/>
    </symbol>

    <symbol id="sm-left-arrow"  viewBox="0 0 15 15" fill="none" xmlns="http://www.w3.org/2000/svg">
        <path d="M2.65625 7.67139L12.0312 7.67139"  stroke-linecap="round" stroke-linejoin="round"/>
        <path d="M6.4375 11.4369L2.65625 7.67188L6.4375 3.90625"  stroke-linecap="round" stroke-linejoin="round"/>
    </symbol>

    <symbol id="location"  viewBox="0 0 20 21" fill="none" xmlns="http://www.w3.org/2000/svg">
        <path d="M10.0004 12.0228C11.4363 12.0228 12.6004 10.8587 12.6004 9.42275C12.6004 7.98681 11.4363 6.82275 10.0004 6.82275C8.56445 6.82275 7.40039 7.98681 7.40039 9.42275C7.40039 10.8587 8.56445 12.0228 10.0004 12.0228Z" stroke="#BCCCCF" stroke-width="1.5"/>
        <path d="M3.01675 7.90589C4.65842 0.689227 15.3501 0.697561 16.9834 7.91423C17.9417 12.1476 15.3084 15.7309 13.0001 17.9476C11.3251 19.5642 8.67508 19.5642 6.99175 17.9476C4.69175 15.7309 2.05842 12.1392 3.01675 7.90589Z" stroke="#BCCCCF" stroke-width="1.5"/>
    </symbol>

    <symbol id="phone"  viewBox="0 0 20 21" fill="none" xmlns="http://www.w3.org/2000/svg">
        <path d="M18.3082 16.1059C18.3082 16.4059 18.2415 16.7142 18.0998 17.0142C17.9582 17.3142 17.7748 17.5976 17.5332 17.8642C17.1248 18.3142 16.6748 18.6392 16.1665 18.8476C15.6665 19.0559 15.1248 19.1642 14.5415 19.1642C13.6915 19.1642 12.7832 18.9642 11.8248 18.5559C10.8665 18.1476 9.90817 17.5976 8.95817 16.9059C7.99984 16.2059 7.0915 15.4309 6.22484 14.5726C5.3665 13.7059 4.5915 12.7976 3.89984 11.8476C3.2165 10.8976 2.6665 9.94756 2.2665 9.00589C1.8665 8.05589 1.6665 7.14756 1.6665 6.28089C1.6665 5.71423 1.7665 5.17256 1.9665 4.67256C2.1665 4.16423 2.48317 3.69756 2.92484 3.28089C3.45817 2.75589 4.0415 2.49756 4.65817 2.49756C4.8915 2.49756 5.12484 2.54756 5.33317 2.64756C5.54984 2.74756 5.7415 2.89756 5.8915 3.11423L7.82484 5.83923C7.97484 6.04756 8.08317 6.23923 8.15817 6.42256C8.23317 6.59756 8.27484 6.77256 8.27484 6.93089C8.27484 7.13089 8.2165 7.33089 8.09984 7.52256C7.9915 7.71423 7.83317 7.91423 7.63317 8.11423L6.99984 8.77256C6.90817 8.86423 6.8665 8.97256 6.8665 9.10589C6.8665 9.17256 6.87484 9.23089 6.8915 9.29756C6.9165 9.36423 6.9415 9.41423 6.95817 9.46423C7.10817 9.73923 7.3665 10.0976 7.73317 10.5309C8.10817 10.9642 8.50817 11.4059 8.9415 11.8476C9.3915 12.2892 9.82484 12.6976 10.2665 13.0726C10.6998 13.4392 11.0582 13.6892 11.3415 13.8392C11.3832 13.8559 11.4332 13.8809 11.4915 13.9059C11.5582 13.9309 11.6248 13.9392 11.6998 13.9392C11.8415 13.9392 11.9498 13.8892 12.0415 13.7976L12.6748 13.1726C12.8832 12.9642 13.0832 12.8059 13.2748 12.7059C13.4665 12.5892 13.6582 12.5309 13.8665 12.5309C14.0248 12.5309 14.1915 12.5642 14.3748 12.6392C14.5582 12.7142 14.7498 12.8226 14.9582 12.9642L17.7165 14.9226C17.9332 15.0726 18.0832 15.2476 18.1748 15.4559C18.2582 15.6642 18.3082 15.8726 18.3082 16.1059Z" stroke="#BCCCCF" stroke-width="1.5" stroke-miterlimit="10"/>
        <path d="M13.5 7.33105H17.5M13.5 7.33105V3.33105V7.33105Z" stroke="#BCCCCF" stroke-width="1.5" stroke-linecap="round" stroke-linejoin="round"/>
    </symbol>

    <symbol  id="Bag" viewBox="0 0 36 36" fill="none" xmlns="http://www.w3.org/2000/svg">
        <path d="M17.9927 24.6812V21.0569" stroke="white" stroke-width="2.5" stroke-linecap="round" stroke-linejoin="round"/>
        <path fill-rule="evenodd" clip-rule="evenodd" d="M27.1764 8.47159C29.6818 8.47159 31.698 10.4288 31.698 12.8431V17.7574C28.0511 19.8146 23.233 21.0575 17.9849 21.0575C12.7369 21.0575 7.93357 19.8146 4.28662 17.7574V12.8288C4.28662 10.4145 6.31765 8.47159 8.82307 8.47159H27.1764Z" stroke="white" stroke-width="2.5" stroke-linecap="round" stroke-linejoin="round"/>
        <path d="M23.1812 8.4653V7.94243C23.1812 6.19955 21.7135 4.78525 19.9049 4.78525H16.08C14.2714 4.78525 12.8037 6.19955 12.8037 7.94243V8.4653" stroke="white" stroke-width="2.5" stroke-linecap="round" stroke-linejoin="round"/>
        <path d="M4.32275 22.9758L4.60295 26.5601C4.79271 28.9758 6.88155 30.843 9.39439 30.843H26.5899C29.1027 30.843 31.1916 28.9758 31.3813 26.5601L31.6615 22.9758" stroke="white" stroke-width="2.5" stroke-linecap="round" stroke-linejoin="round"/>
    </symbol>

    <symbol id="profile"  viewBox="0 0 25 24" fill="none" xmlns="http://www.w3.org/2000/svg">
        <path d="M12.497 15.1747C8.184 15.1747 4.5 15.8547 4.5 18.5747C4.5 21.2957 8.161 21.9997 12.497 21.9997C16.81 21.9997 20.494 21.3207 20.494 18.5997C20.494 15.8787 16.834 15.1747 12.497 15.1747Z" fill="white"/>
        <path opacity="0.4" d="M12.4971 12.5838C15.4351 12.5838 17.7891 10.2288 17.7891 7.29176C17.7891 4.35476 15.4351 1.99976 12.4971 1.99976C9.56008 1.99976 7.20508 4.35476 7.20508 7.29176C7.20508 10.2288 9.56008 12.5838 12.4971 12.5838Z" fill="white"/>
    </symbol>

    <symbol id="menu-left-arrow"  viewBox="0 0 24 24" fill="none" xmlns="http://www.w3.org/2000/svg">
        <path opacity="0.4" d="M4.25 12.2744L19.25 12.2744" stroke-width="1.5" stroke-linecap="round" stroke-linejoin="round"/>
        <path d="M10.2998 18.2988L4.2498 12.2748L10.2998 6.24976" stroke-width="1.5" stroke-linecap="round" stroke-linejoin="round"/>
    </symbol>

    <symbol id="search" viewBox="0 0 32 32" fill="none" xmlns="http://www.w3.org/2000/svg">
        <circle cx="15.6888" cy="15.6888" r="11.9847" stroke-width="1.5" stroke-linecap="round" stroke-linejoin="round"/>
        <path opacity="0.4" d="M24.0244 24.6469L28.7231 29.3333" stroke-width="1.5" stroke-linecap="round" stroke-linejoin="round"/>
    </symbol>

    <symbol id="down" viewBox="0 0 13 8" fill="none" xmlns="http://www.w3.org/2000/svg">
        <path d="M12 1L6.5 7L1 1" stroke-width="2" stroke-linecap="round" stroke-linejoin="round"/>
    </symbol>

    <symbol id="menu"  viewBox="0 0 20 12" xmlns="http://www.w3.org/2000/svg">
        <path d="M1 1H19" stroke-width="1.5" stroke-linecap="round"/>
        <path d="M1 6H19" stroke-width="1.5" stroke-linecap="round"/>
        <path d="M1 11H19" stroke-width="1.5" stroke-linecap="round"/>
    </symbol>

    <symbol id="notifications" viewBox="0 0 42 46" fill="none" xmlns="http://www.w3.org/2000/svg">
        <path fill-rule="evenodd" clip-rule="evenodd" d="M7.5 6.94C7.5 8.459 6.688 8.946 3.75 9.19L0 9.5V27V44.5L11.944 44.783L23.889 45.067L31.724 37.283L39.559 29.5L39.279 19.5L39 9.5L35.25 9.19C32.312 8.946 31.5 8.459 31.5 6.94C31.5 5.667 30.813 5 29.5 5C28.167 5 27.5 5.667 27.5 7C27.5 8.556 26.833 9 24.5 9C22.167 9 21.5 8.556 21.5 7C21.5 5.667 20.833 5 19.5 5C18.167 5 17.5 5.667 17.5 7C17.5 8.556 16.833 9 14.5 9C12.167 9 11.5 8.556 11.5 7C11.5 5.667 10.833 5 9.5 5C8.187 5 7.5 5.667 7.5 6.94Z" fill="#DBDEEA"/>
        <path fill-rule="evenodd" clip-rule="evenodd" d="M9.5 1.94C9.5 3.459 8.688 3.946 5.75 4.19L2 4.5V22V39.5L13.944 39.783L25.889 40.067L33.724 32.283L41.559 24.5L41.279 14.5L41 4.5L37.25 4.19C34.312 3.946 33.5 3.459 33.5 1.94C33.5 0.667 32.813 0 31.5 0C30.167 0 29.5 0.667 29.5 2C29.5 3.556 28.833 4 26.5 4C24.167 4 23.5 3.556 23.5 2C23.5 0.667 22.833 0 21.5 0C20.167 0 19.5 0.667 19.5 2C19.5 3.556 18.833 4 16.5 4C14.167 4 13.5 3.556 13.5 2C13.5 0.667 12.833 0 11.5 0C10.187 0 9.5 0.667 9.5 1.94ZM9.5 10C9.5 11.333 10.167 12 11.5 12C12.833 12 13.5 11.333 13.5 10C13.5 8.444 14.167 8 16.5 8C18.833 8 19.5 8.444 19.5 10C19.5 11.333 20.167 12 21.5 12C22.833 12 23.5 11.333 23.5 10C23.5 8.444 24.167 8 26.5 8C28.833 8 29.5 8.444 29.5 10C29.5 11.333 30.167 12 31.5 12C32.833 12 33.5 11.333 33.5 10C33.5 8.667 34.167 8 35.5 8C37.308 8 37.5 8.667 37.5 14.954V21.909L30.75 22.204L24 22.5L23.704 29.25L23.409 36H14.454H5.5V22C5.5 8.667 5.595 8 7.5 8C8.833 8 9.5 8.667 9.5 10Z" fill="black"/>
    </symbol>

    <symbol id="paly-orange" viewBox="0 0 131 131" fill="none" xmlns="http://www.w3.org/2000/svg">
        <path d="M66 20L79.7307 32.8512L98.5269 33.4731L99.1488 52.2693L112 66L99.1488 79.7307L98.5269 98.5269L79.7307 99.1488L66 112L52.2693 99.1488L33.4731 98.5269L32.8512 79.7307L20 66L32.8512 52.2693L33.4731 33.4731L52.2693 32.8512L66 20Z" fill="white"/>
        <path d="M65.5 5L83.5588 21.9021L108.28 22.72L109.098 47.4412L126 65.5L109.098 83.5588L108.28 108.28L83.5588 109.098L65.5 126L47.4412 109.098L22.72 108.28L21.9021 83.5588L5 65.5L21.9021 47.4412L22.72 22.72L47.4412 21.9021L65.5 5Z" stroke="white" stroke-width="6"/>
        <path fill-rule="evenodd" clip-rule="evenodd" d="M47.584 65.0101C47.584 55.3509 55.6257 47.5 65.5007 47.5C75.3756 47.5 83.4173 55.3509 83.4173 65.0101C83.4173 74.6491 75.3756 82.5 65.5007 82.5C55.6257 82.5 47.584 74.6491 47.584 65.0101ZM72.0724 66.7812C72.2626 66.5955 72.5048 66.3085 72.5566 66.241C72.8333 65.8864 72.9717 65.4474 72.9717 65.0101C72.9717 64.5188 72.816 64.063 72.522 63.6915C72.4979 63.668 72.4508 63.6178 72.3893 63.5524C72.2742 63.4301 72.1091 63.2546 71.9513 63.1006C70.5332 61.6148 66.8323 59.1836 64.8954 58.4407C64.6014 58.3242 63.8577 58.0692 63.46 58.0523C63.0795 58.0523 62.7163 58.1368 62.3704 58.3056C61.9381 58.542 61.5922 58.9134 61.402 59.3524C61.2809 59.6563 61.0907 60.568 61.0907 60.5849C60.9004 61.581 60.7967 63.2019 60.7967 64.9916C60.7967 66.6985 60.9004 68.2501 61.0561 69.2631C61.0604 69.2673 61.0752 69.3398 61.0983 69.4523C61.1686 69.7945 61.315 70.5074 61.4711 70.7996C61.8516 71.5087 62.5952 71.9477 63.3908 71.9477H63.46C63.9788 71.9308 65.0683 71.4918 65.0683 71.4749C66.9015 70.732 70.5159 68.419 71.9686 66.8825L72.0724 66.7812Z" fill="#FB782F"/>
    </symbol>

    <symbol id="true" viewBox="0 0 24 25" fill="none" xmlns="http://www.w3.org/2000/svg">
        <path d="M8.43945 12.5L10.8135 14.873L15.5595 10.127" stroke="#0ACB7A" stroke-linecap="round" stroke-linejoin="round"/>
        <path fill-rule="evenodd" clip-rule="evenodd" d="M2.75 12.5C2.75 19.437 5.063 21.75 12 21.75C18.937 21.75 21.25 19.437 21.25 12.5C21.25 5.563 18.937 3.25 12 3.25C5.063 3.25 2.75 5.563 2.75 12.5Z" stroke="#7A8C9C" stroke-width="1.8" stroke-linecap="round" stroke-linejoin="round"/>
    </symbol>

    <symbol id="false"  viewBox="0 0 24 25" fill="none" xmlns="http://www.w3.org/2000/svg">
        <path d="M14.3936 10.0947L9.60156 14.8867" stroke="#FB542F" stroke-linecap="round" stroke-linejoin="round"/>
        <path d="M14.3996 14.8928L9.59961 10.0928" stroke="#FB542F" stroke-linecap="round" stroke-linejoin="round"/>
        <path fill-rule="evenodd" clip-rule="evenodd" d="M2.75 12.5C2.75 19.437 5.063 21.75 12 21.75C18.937 21.75 21.25 19.437 21.25 12.5C21.25 5.563 18.937 3.25 12 3.25C5.063 3.25 2.75 5.563 2.75 12.5Z" stroke="#7A8C9C" stroke-width="1.8" stroke-linecap="round" stroke-linejoin="round"/>
    </symbol>

    <symbol id="filter" viewBox="0 0 20 20" xmlns="http://www.w3.org/2000/svg">
        <g mask="url(#mask0_1326_4902)">
        <path fill-rule="evenodd" clip-rule="evenodd" d="M6.773 10.099C6.791 10.115 6.808 10.13 6.825 10.148C7.904 11.254 8.499 12.719 8.499 14.274V18.258L10.735 17.04C10.911 16.944 11.02 16.756 11.02 16.549V14.262C11.02 12.713 11.609 11.253 12.678 10.153L17.515 5.008C17.828 4.675 18 4.238 18 3.777V2.841C18 2.377 17.634 2 17.186 2H2.315C1.866 2 1.5 2.377 1.5 2.841V3.777C1.5 4.238 1.672 4.675 1.985 5.007L6.773 10.099ZM8.146 20.001C7.944 20.001 7.744 19.947 7.562 19.839C7.21 19.629 6.999 19.258 6.999 18.846V14.274C6.999 13.139 6.576 12.07 5.805 11.251C5.782 11.232 5.759 11.211 5.739 11.189L0.893 6.036C0.317 5.424 0 4.621 0 3.777V2.841C0 1.55 1.039 0.5 2.315 0.5H17.186C18.461 0.5 19.5 1.55 19.5 2.841V3.777C19.5 4.62 19.183 5.422 18.609 6.035L13.762 11.189C12.959 12.017 12.52 13.106 12.52 14.262V16.549C12.52 17.305 12.111 17.997 11.453 18.357L8.692 19.861C8.52 19.954 8.333 20.001 8.146 20.001V20.001Z" />
        </g>
    </symbol>

    <symbol id="drop-down-icon" viewBox="0 0 15 8" xmlns="http://www.w3.org/2000/svg">
        <path opacity="0.4" d="M10.4788 5.22969L6.68877 0.179688H1.07877C0.118772 0.179688 -0.361228 1.33969 0.318772 2.01969L5.49877 7.19969C6.32877 8.02969 7.67877 8.02969 8.50877 7.19969L10.4788 5.22969Z" />
        <path d="M12.9195 0.179688H6.68945L10.4795 5.22969L13.6895 2.01969C14.3595 1.33969 13.8795 0.179688 12.9195 0.179688Z" />
    </symbol>

    <symbol id="tick" viewBox="0 0 12 8" xmlns="http://www.w3.org/2000/svg">
        <path d="M11.0883 0.224506C11.0178 0.153368 10.9338 0.0969037 10.8413 0.058371C10.7489 0.0198384 10.6497 0 10.5495 0C10.4493 0 10.3501 0.0198384 10.2576 0.058371C10.1651 0.0969037 10.0811 0.153368 10.0106 0.224506L4.35614 5.88653L1.98052 3.50332C1.90726 3.43255 1.82078 3.37691 1.72602 3.33957C1.63125 3.30222 1.53006 3.28391 1.42822 3.28567C1.32638 3.28743 1.22588 3.30923 1.13247 3.34983C1.03906 3.39044 0.954552 3.44904 0.883785 3.5223C0.813019 3.59556 0.757375 3.68203 0.720029 3.7768C0.682684 3.87156 0.66437 3.97275 0.666132 4.07459C0.667894 4.17643 0.689698 4.27693 0.730298 4.37035C0.770899 4.46376 0.829502 4.54826 0.90276 4.61903L3.81726 7.53353C3.88782 7.60467 3.97176 7.66113 4.06425 7.69967C4.15674 7.7382 4.25595 7.75804 4.35614 7.75804C4.45634 7.75804 4.55554 7.7382 4.64803 7.69967C4.74052 7.66113 4.82446 7.60467 4.89502 7.53353L11.0883 1.34021C11.1654 1.26914 11.2269 1.18288 11.2689 1.08687C11.311 0.990859 11.3327 0.887178 11.3327 0.782361C11.3327 0.677543 11.311 0.573862 11.2689 0.477851C11.2269 0.38184 11.1654 0.29558 11.0883 0.224506V0.224506Z" />
    </symbol>

    <symbol id="call"  viewBox="0 0 39 40"  xmlns="http://www.w3.org/2000/svg">
        <path d="M23.3242 4.28223C29.3383 4.9501 34.0898 9.6951 34.7642 15.7092"  stroke-width="3.5" stroke-linecap="round" stroke-linejoin="round"/>
        <path d="M23.3242 10.04C26.2021 10.599 28.4511 12.8497 29.0117 15.7275" opacity="0.4"  stroke-width="3.5" stroke-linecap="round" stroke-linejoin="round"/>
        <path fill-rule="evenodd" clip-rule="evenodd" d="M17.9262 20.4874C24.4083 26.9678 25.8788 19.4706 30.006 23.595C33.985 27.573 36.2736 28.3699 31.2306 33.4099C30.5991 33.9174 26.5871 40.0229 12.4873 25.9267C-1.61429 11.8287 4.48755 7.81245 4.99516 7.18114C10.0486 2.12723 10.8336 4.42747 14.8125 8.40539C18.938 12.5315 11.4441 14.0069 17.9262 20.4874Z"  stroke-width="3.5" stroke-linecap="round" stroke-linejoin="round"/>
    </symbol>


</svg>