<svg width="117" height="116" viewBox="0 0 117 116" fill="none" xmlns="http://www.w3.org/2000/svg">
<path d="M1.77601 40.0378C2.70251 38.7339 13.8871 67.6101 31.8 57.921C43.3052 47.9746 42.5529 70.6687 51.0229 71.0699C58.337 71.4163 64.7566 58.984 75.219 59.8476C85.3556 60.6843 84.6426 72.1807 91.5762 76.0276C96.6885 78.8642 100.104 75.348 104.959 74.0882C108.028 73.2917 110.522 73.7224 113.585 73.6325M109.205 77.6216C110.092 76.335 111.509 75.4063 112.82 74.6307C113.597 74.1716 114.391 73.686 115.264 73.4529C112.786 72.8319 110.706 71.9288 108.886 70.1189" stroke="url(#paint0_linear_648_13092)" stroke-width="2" stroke-miterlimit="1.5" stroke-linecap="round" stroke-linejoin="round"/>
<defs>
<linearGradient id="paint0_linear_648_13092" x1="112.836" y1="71.0248" x2="-4.3847" y2="36.3476" gradientUnits="userSpaceOnUse">
<stop stop-color="white"/>
<stop offset="1" stop-color="white" stop-opacity="0"/>
</linearGradient>
</defs>
</svg>
