<svg width="178" height="136" viewBox="0 0 178 136" fill="none" xmlns="http://www.w3.org/2000/svg">
<path d="M176.124 56.4818C175.694 58.8297 142.339 26.8536 124.241 51.2639C114.967 71.9758 101.654 40.8198 89.9496 45.6259C79.8426 49.7762 79.0143 70.6375 64.3245 76.0765C50.0922 81.3463 43.7966 65.3537 31.9936 64.5312C23.2909 63.9246 20.8933 70.8351 15.1256 75.6038C11.479 78.6188 7.83559 79.6113 3.75168 81.6669M7.15387 73.5081C6.7676 75.8074 5.43791 77.958 4.15483 79.8346C3.3956 80.9453 2.62793 82.1036 1.59506 82.97C5.33685 82.245 8.71947 82.1522 12.3227 83.4499" stroke="url(#paint0_linear_271_6623)" stroke-width="2" stroke-miterlimit="1.5" stroke-linecap="round" stroke-linejoin="round"/>
<defs>
<linearGradient id="paint0_linear_271_6623" x1="6.41082" y1="84.7193" x2="186.783" y2="57.5804" gradientUnits="userSpaceOnUse">
<stop stop-color="white"/>
<stop offset="1" stop-color="white" stop-opacity="0"/>
</linearGradient>
</defs>
</svg>
