<svg width="326" height="196" viewBox="0 0 326 196" fill="none" xmlns="http://www.w3.org/2000/svg">
<g opacity="0.2">
<path d="M0.738787 31.3735L1.4783 32.1713L1.48309 32.1669L1.49978 32.1514L1.56798 32.0884C1.62877 32.0325 1.71997 31.9488 1.84026 31.8393C2.08083 31.6203 2.4377 31.2979 2.90024 30.8869C3.8254 30.0649 5.17292 28.8889 6.85785 27.4768C10.2289 24.6516 14.9447 20.8868 20.3263 17.1242C25.7113 13.3594 31.7426 9.6112 37.7463 6.80786C43.766 3.99701 49.6707 2.17779 54.8259 2.17779C65.093 2.17779 72.913 9.38316 81.13 17.0291L81.2917 17.1796C89.2994 24.6312 97.7149 32.4624 108.913 32.4624C120.111 32.4624 128.526 24.6312 136.534 17.1796L136.696 17.0291C144.913 9.38316 152.733 2.17779 163 2.17779C173.267 2.17779 181.087 9.38316 189.304 17.0291L189.466 17.1796C197.474 24.6313 205.889 32.4624 217.087 32.4624C228.285 32.4624 236.701 24.6313 244.708 17.1796L244.87 17.0291C253.087 9.38316 260.907 2.17779 271.174 2.17779C276.329 2.17779 282.234 3.99701 288.254 6.80786C294.257 9.6112 300.289 13.3594 305.674 17.1242C311.055 20.8868 315.771 24.6516 319.142 27.4768C320.827 28.8889 322.175 30.0649 323.1 30.8869C323.562 31.2979 323.919 31.6203 324.16 31.8393C324.28 31.9488 324.371 32.0325 324.432 32.0884L324.5 32.1514L324.521 32.1705L325.261 31.3735L325.932 30.6497C326 30.5752 326 30.575 326 30.575L325.994 30.5691L325.975 30.5517L325.902 30.4848C325.839 30.4261 325.745 30.3397 325.621 30.2274C325.374 30.0028 325.011 29.6746 324.542 29.2574C323.603 28.4232 322.239 27.2333 320.536 25.8062C317.132 22.953 312.365 19.1467 306.917 15.3382C301.473 11.5319 295.329 7.70888 289.172 4.83386C283.031 1.96636 276.789 0 271.174 0C259.976 0 251.561 7.83115 243.553 15.2828L243.391 15.4332C235.174 23.0792 227.354 30.2846 217.087 30.2846C206.82 30.2846 199 23.0792 190.783 15.4332L190.621 15.2828C182.614 7.83115 174.198 0 163 0C151.802 0 143.386 7.83115 135.379 15.2828L135.217 15.4332C127 23.0792 119.18 30.2846 108.913 30.2846C98.6458 30.2846 90.8258 23.0792 82.6088 15.4332L82.4471 15.2828C74.4394 7.83113 66.0239 0 54.8259 0C49.2107 0 42.9694 1.96636 36.8283 4.83386C30.6712 7.70888 24.5271 11.5319 19.0828 15.3382C13.6353 19.1467 8.86817 22.953 5.46363 25.8062C3.76076 27.2333 2.39731 28.4232 1.45844 29.2574C0.988966 29.6746 0.62556 30.0028 0.378859 30.2274C0.255505 30.3397 0.16132 30.4261 0.097634 30.4848L0.0251414 30.5517L0.00138996 30.5737C0.00138996 30.5737 -0.000612385 30.5755 0.738787 31.3735Z" fill="white"/>
<path d="M0.738787 85.8867L1.4783 86.6846L1.48309 86.6801L1.49978 86.6646L1.56798 86.6017C1.62877 86.5457 1.71997 86.4621 1.84026 86.3526C2.08083 86.1335 2.4377 85.8112 2.90024 85.4002C3.8254 84.5782 5.17292 83.4021 6.85785 81.9901C10.2289 79.1649 14.9447 75.4 20.3263 71.6375C25.7113 67.8726 31.7426 64.1245 37.7463 61.3211C43.766 58.5103 49.6707 56.691 54.8259 56.691C65.093 56.691 72.913 63.8964 81.13 71.5424L81.2917 71.6928C89.2994 79.1445 97.7149 86.9756 108.913 86.9756C120.111 86.9756 128.526 79.1445 136.534 71.6928L136.696 71.5424C144.913 63.8964 152.733 56.691 163 56.691C173.267 56.691 181.087 63.8964 189.304 71.5424L189.466 71.6928C197.474 79.1445 205.889 86.9756 217.087 86.9756C228.285 86.9756 236.701 79.1445 244.708 71.6928L244.87 71.5424C253.087 63.8964 260.907 56.691 271.174 56.691C276.329 56.691 282.234 58.5103 288.254 61.3211C294.257 64.1245 300.289 67.8726 305.674 71.6375C311.055 75.4 315.771 79.1649 319.142 81.9901C320.827 83.4021 322.175 84.5782 323.1 85.4002C323.562 85.8112 323.919 86.1335 324.16 86.3526C324.28 86.4621 324.371 86.5457 324.432 86.6017L324.5 86.6646L324.521 86.6838L325.261 85.8867C326.001 85.0888 326 85.0882 326 85.0882L325.994 85.0823L325.975 85.0649L325.902 84.998C325.839 84.9394 325.745 84.853 325.621 84.7407C325.374 84.5161 325.011 84.1878 324.542 83.7707C323.603 82.9365 322.239 81.7466 320.536 80.3195C317.132 77.4663 312.365 73.66 306.917 69.8514C301.473 66.0451 295.329 62.2221 289.172 59.3471C283.031 56.4796 276.789 54.5133 271.174 54.5133C259.976 54.5133 251.561 62.3444 243.553 69.7961L243.391 69.9465C235.174 77.5925 227.354 84.7978 217.087 84.7978C206.82 84.7978 199 77.5925 190.783 69.9465L190.621 69.7961C182.614 62.3444 174.198 54.5133 163 54.5133C151.802 54.5133 143.386 62.3444 135.379 69.7961L135.217 69.9465C127 77.5925 119.18 84.7978 108.913 84.7978C98.6458 84.7978 90.8258 77.5925 82.6088 69.9465L82.4471 69.7961C74.4394 62.3444 66.0239 54.5133 54.8259 54.5133C49.2107 54.5133 42.9694 56.4796 36.8283 59.3471C30.6712 62.2221 24.5271 66.0451 19.0828 69.8514C13.6353 73.66 8.86817 77.4663 5.46363 80.3195C3.76076 81.7466 2.39731 82.9365 1.45844 83.7707C0.988966 84.1878 0.62556 84.5161 0.378859 84.7407C0.255505 84.853 0.16132 84.9394 0.097634 84.998L0.0251414 85.0649L0.00636002 85.0823L0.00138996 85.0869C0.00138996 85.0869 -0.000612385 85.0888 0.738787 85.8867Z" fill="white"/>
<path d="M1.4783 141.197L0.738787 140.4C-0.000612385 139.602 1.68024e-05 139.601 1.68024e-05 139.601L0.00636002 139.595L0.0251414 139.578L0.097634 139.511C0.16132 139.452 0.255505 139.366 0.378859 139.254C0.62556 139.029 0.988966 138.701 1.45844 138.284C2.39731 137.449 3.76076 136.259 5.46363 134.832C8.86817 131.979 13.6353 128.173 19.0828 124.364C24.5271 120.558 30.6712 116.735 36.8283 113.86C42.9694 110.992 49.2107 109.026 54.8259 109.026C66.0239 109.026 74.4394 116.857 82.4471 124.309L82.6088 124.459C90.8258 132.105 98.6458 139.311 108.913 139.311C119.18 139.311 127 132.105 135.217 124.459L135.379 124.309C143.386 116.857 151.802 109.026 163 109.026C174.198 109.026 182.614 116.857 190.621 124.309L190.783 124.459C199 132.105 206.82 139.311 217.087 139.311C227.354 139.311 235.174 132.105 243.391 124.459L243.553 124.309C251.561 116.857 259.976 109.026 271.174 109.026C276.789 109.026 283.031 110.992 289.172 113.86C295.329 116.735 301.473 120.558 306.917 124.364C312.365 128.173 317.132 131.979 320.536 134.832C322.239 136.259 323.603 137.449 324.542 138.284C325.011 138.701 325.374 139.029 325.621 139.254C325.745 139.366 325.839 139.452 325.902 139.511L325.975 139.578L325.999 139.6C325.999 139.6 326.001 139.602 325.261 140.4L324.522 141.197L324.517 141.193L324.5 141.178L324.432 141.115L324.387 141.074L324.299 140.993C324.258 140.955 324.212 140.913 324.16 140.865C323.919 140.646 323.562 140.324 323.1 139.913C322.175 139.091 320.827 137.915 319.142 136.503C315.771 133.678 311.055 129.913 305.674 126.15C300.289 122.385 294.257 118.637 288.254 115.834C282.234 113.023 276.329 111.204 271.174 111.204C260.907 111.204 253.087 118.409 244.87 126.055L244.708 126.206C236.701 133.657 228.285 141.488 217.087 141.488C205.889 141.488 197.474 133.657 189.466 126.206L189.304 126.055C181.087 118.409 173.267 111.204 163 111.204C152.733 111.204 144.913 118.409 136.696 126.055L136.534 126.206C128.526 133.657 120.111 141.488 108.913 141.488C97.7149 141.488 89.2994 133.657 81.2917 126.206L81.13 126.055C72.913 118.409 65.093 111.204 54.8259 111.204C49.6707 111.204 43.766 113.023 37.7463 115.834C31.7426 118.637 25.7113 122.385 20.3263 126.15C14.9447 129.913 10.2289 133.678 6.85785 136.503C5.17292 137.915 3.8254 139.091 2.90024 139.913C2.4377 140.324 2.08083 140.646 1.84026 140.865C1.71997 140.975 1.62877 141.059 1.56798 141.115L1.49978 141.178L1.4783 141.197Z" fill="white"/>
<path d="M0.738787 194.911L1.4783 195.709L1.49978 195.689L1.56798 195.626C1.62877 195.57 1.71997 195.486 1.84026 195.377C2.08083 195.158 2.4377 194.836 2.90024 194.425C3.8254 193.603 5.17292 192.427 6.85785 191.014C10.2289 188.189 14.9447 184.424 20.3263 180.662C25.7113 176.897 31.7426 173.149 37.7463 170.346C43.766 167.535 49.6707 165.715 54.8259 165.715C65.093 165.715 72.913 172.921 81.13 180.567L81.2917 180.717C89.2994 188.169 97.7149 196 108.913 196C120.111 196 128.526 188.169 136.534 180.717L136.696 180.567C144.913 172.921 152.733 165.715 163 165.715C173.267 165.715 181.087 172.921 189.304 180.567L189.466 180.717C197.474 188.169 205.889 196 217.087 196C228.285 196 236.701 188.169 244.708 180.717L244.87 180.567C253.087 172.921 260.907 165.715 271.174 165.715C276.329 165.715 282.234 167.535 288.254 170.346C294.257 173.149 300.289 176.897 305.674 180.662C311.055 184.424 315.771 188.189 319.142 191.014C320.827 192.427 322.175 193.603 323.1 194.425C323.562 194.836 323.919 195.158 324.16 195.377C324.28 195.486 324.371 195.57 324.432 195.626L324.5 195.689L324.517 195.705L324.521 195.708L325.261 194.911C326.001 194.113 326 194.113 326 194.113L325.994 194.107L325.975 194.089L325.902 194.022C325.839 193.964 325.745 193.877 325.621 193.765C325.374 193.54 325.011 193.212 324.542 192.795C323.603 191.961 322.239 190.771 320.536 189.344C317.132 186.491 312.365 182.684 306.917 178.876C301.473 175.07 295.329 171.247 289.172 168.371C283.031 165.504 276.789 163.538 271.174 163.538C259.976 163.538 251.561 171.369 243.553 178.82L243.391 178.971C235.174 186.617 227.354 193.822 217.087 193.822C206.82 193.822 199 186.617 190.783 178.971L190.621 178.82C182.614 171.369 174.198 163.538 163 163.538C151.802 163.538 143.386 171.369 135.379 178.82L135.217 178.971C127 186.617 119.18 193.822 108.913 193.822C98.6458 193.822 90.8258 186.617 82.6088 178.971L82.4471 178.82C74.4394 171.369 66.0239 163.538 54.8259 163.538C49.2107 163.538 42.9694 165.504 36.8283 168.371C30.6712 171.247 24.5271 175.07 19.0828 178.876C13.6353 182.684 8.86817 186.491 5.46363 189.344C3.76076 190.771 2.39731 191.961 1.45844 192.795C0.988966 193.212 0.62556 193.54 0.378859 193.765C0.255505 193.877 0.16132 193.964 0.097634 194.022L0.0251414 194.089L0.00636002 194.107L0.00138996 194.111C0.00138996 194.111 -0.000612385 194.113 0.738787 194.911Z" fill="white"/>
</g>
</svg>
