<svg width="2024" height="2023" viewBox="0 0 2024 2023" fill="none" xmlns="http://www.w3.org/2000/svg">
<path d="M700.558 1974.61L1012 1011.5L631.194 1949.37L700.558 1974.61ZM389.779 1810.05L1012 1011.5L333.227 1762.64L389.779 1810.05ZM260.487 1689.94L1012 1011.5L213.053 1633.41L260.487 1689.94ZM537.969 1905.91L1012 1011.5L474.031 1869.03L537.969 1905.91ZM73.6624 1392.12L1012 1011.5L48.4158 1322.79L73.6624 1392.12ZM21.7842 1223.47L1012 1011.5L8.97337 1150.82L21.7842 1223.47ZM872.61 2014.03L1012 1011.5L799.928 2001.23L872.61 2014.03ZM154.048 1549.2L1012 1011.5L117.115 1485.3L154.048 1549.2ZM1392.81 1949.37L1012 1011.5L1323.44 1974.61L1392.81 1949.37ZM1975.58 1322.79L1012 1011.5L1950.34 1392.12L1975.58 1322.79ZM1906.86 1485.3L1012 1011.5L1869.95 1549.2L1906.86 1485.3ZM1048.9 2023L1012 1011.5L975.097 2023H1048.9ZM1810.95 1633.41L1012 1011.5L1763.51 1689.94L1810.95 1633.41ZM2015.03 1150.82L1012 1011.5L2002.22 1223.47L2015.03 1150.82ZM1224.07 2001.23L1012 1011.5L1151.39 2014.03L1224.07 2001.23ZM1690.77 1762.64L1012 1011.5L1634.22 1810.05L1690.77 1762.64ZM0 1048.39L1012 1011.5L0 974.615V1048.39ZM1549.97 1869.03L1012 1011.5L1486.03 1905.91L1549.97 1869.03ZM117.115 537.704L1011.97 1011.5L154.048 473.796L117.115 537.704ZM1763.51 333.062L1012 1011.5L1810.95 389.586L1763.51 333.062ZM1634.22 212.947L1012 1011.5L1690.77 260.359L1634.22 212.947ZM1869.95 473.796L1012 1011.5L1906.86 537.704L1869.95 473.796ZM1486.03 117.058L1012 1011.5L1549.97 153.972L1486.03 117.058ZM1323.44 48.3919L1012 1011.5L1392.81 73.626L1323.44 48.3919ZM1950.34 630.883L1012 1011.5L1975.58 700.212L1950.34 630.883ZM2024 974.615L1012 1011.5L2024 1048.39V974.615ZM2002.22 799.533L1012 1011.5L2015.03 872.179L2002.22 799.533ZM975.097 0L1012 1011.5L1048.9 0H975.097ZM213.053 389.586L1012 1011.5L260.487 333.062L213.053 389.586ZM333.227 260.359L1012 1011.5L389.779 212.947L333.227 260.359ZM474.031 153.972L1012 1011.5L537.969 117.058L474.031 153.972ZM1151.39 8.96894L1012 1011.5L1224.07 21.7735L1151.39 8.96894ZM48.4158 700.212L1012 1011.5L73.6624 630.883L48.4158 700.212ZM8.97337 872.179L1012 1011.5L21.7842 799.533L8.97337 872.179ZM799.928 21.7735L1012 1011.5L872.61 8.96894L799.928 21.7735ZM631.194 73.626L1012 1011.5L700.558 48.3919L631.194 73.626Z" fill="url(#paint0_radial_271_6607)" fill-opacity="0.1"/>
<defs>
<radialGradient id="paint0_radial_271_6607" cx="0" cy="0" r="1" gradientUnits="userSpaceOnUse" gradientTransform="translate(1012 1011.5) scale(680.508 680.171)">
<stop stop-color="white" stop-opacity="0"/>
<stop offset="0.9613" stop-color="white"/>
</radialGradient>
</defs>
</svg>
