<svg width="25" height="24" viewBox="0 0 25 24" fill="none" xmlns="http://www.w3.org/2000/svg">
<path d="M16.0799 11.9999C16.0799 13.9799 14.4799 15.5799 12.4999 15.5799C10.5199 15.5799 8.91992 13.9799 8.91992 11.9999C8.91992 10.0199 10.5199 8.41992 12.4999 8.41992C14.4799 8.41992 16.0799 10.0199 16.0799 11.9999Z" stroke="#119699" stroke-width="1.5" stroke-linecap="round" stroke-linejoin="round"/>
<path d="M12.4998 20.27C16.0298 20.27 19.3198 18.19 21.6098 14.59C22.5098 13.18 22.5098 10.81 21.6098 9.39997C19.3198 5.79997 16.0298 3.71997 12.4998 3.71997C8.96984 3.71997 5.67984 5.79997 3.38984 9.39997C2.48984 10.81 2.48984 13.18 3.38984 14.59C5.67984 18.19 8.96984 20.27 12.4998 20.27Z" stroke="#119699" stroke-width="1.5" stroke-linecap="round" stroke-linejoin="round"/>
</svg>
