<svg width="96" height="96" viewBox="0 0 96 96" fill="none" xmlns="http://www.w3.org/2000/svg">
<path d="M49 5L61.8352 17.0131L79.4056 17.5944L79.9869 35.1648L92 48L79.9869 60.8352L79.4056 78.4056L61.8352 78.9869L49 91L36.1648 78.9869L18.5944 78.4056L18.0131 60.8352L6 48L18.0131 35.1648L18.5944 17.5944L36.1648 17.0131L49 5Z" fill="white"/>
<path d="M59.6503 20.121L59.7876 20.2494L59.9754 20.2556L75.2394 20.7606L75.7444 36.0245L75.7506 36.2124L75.8791 36.3497L86.3152 47.5L75.8791 58.6503L75.7506 58.7876L75.7444 58.9754L75.2394 74.2394L59.9754 74.7444L59.7876 74.7506L59.6503 74.8791L48.5 85.3152L37.3497 74.8791L37.2124 74.7506L37.0245 74.7444L21.7606 74.2394L21.2556 58.9754L21.2494 58.7876L21.121 58.6503L10.6848 47.5L21.121 36.3497L21.2494 36.2124L21.2556 36.0245L21.7606 20.7606L37.0245 20.2556L37.2124 20.2494L37.3497 20.121L48.5 9.68483L59.6503 20.121Z" stroke="#119699"/>
<path d="M61.986 13.775L62.1232 13.9035L62.3111 13.9097L81.4569 14.5431L82.0903 33.6889L82.0965 33.8768L82.225 34.014L95.3152 48L82.225 61.986L82.0965 62.1232L82.0903 62.3111L81.4569 81.4569L62.3111 82.0903L62.1232 82.0965L61.986 82.225L48 95.3152L34.014 82.225L33.8768 82.0965L33.6889 82.0903L14.5431 81.4569L13.9097 62.3111L13.9035 62.1232L13.775 61.986L0.684834 48L13.775 34.014L13.9035 33.8768L13.9097 33.6889L14.5431 14.5431L33.6889 13.9097L33.8768 13.9035L34.014 13.775L48 0.684834L61.986 13.775Z" stroke="white"/>
<path fill-rule="evenodd" clip-rule="evenodd" d="M34.8335 48.0082C34.8335 40.1888 41.1921 33.8333 49.0002 33.8333C56.8082 33.8333 63.1668 40.1888 63.1668 48.0082C63.1668 55.8111 56.8082 62.1666 49.0002 62.1666C41.1921 62.1666 34.8335 55.8111 34.8335 48.0082ZM54.1964 49.4419C54.3468 49.2916 54.5383 49.0592 54.5793 49.0046C54.7981 48.7175 54.9075 48.3622 54.9075 48.0082C54.9075 47.6104 54.7844 47.2414 54.552 46.9407C54.5329 46.9217 54.4956 46.8811 54.447 46.8282C54.356 46.7292 54.2255 46.587 54.1007 46.4624C52.9794 45.2596 50.0531 43.2914 48.5216 42.69C48.2891 42.5957 47.7011 42.3894 47.3866 42.3757C47.0857 42.3757 46.7986 42.444 46.5251 42.5807C46.1832 42.772 45.9098 43.0727 45.7593 43.4281C45.6636 43.6741 45.5132 44.4122 45.5132 44.4259C45.3628 45.2323 45.2807 46.5444 45.2807 47.9931C45.2807 49.375 45.3628 50.631 45.4858 51.4511C45.4892 51.4545 45.501 51.5131 45.5193 51.6042C45.5748 51.8812 45.6906 52.4583 45.814 52.6949C46.1149 53.2689 46.7029 53.6243 47.3319 53.6243H47.3866C47.7968 53.6106 48.6583 53.2552 48.6583 53.2416C50.1078 52.6402 52.9657 50.7677 54.1144 49.5239L54.1964 49.4419Z" fill="#119699"/>
</svg>
