<svg width="82" height="46" viewBox="0 0 82 46" fill="none" xmlns="http://www.w3.org/2000/svg">
<path fill-rule="evenodd" clip-rule="evenodd" d="M0.753789 29.7702C1.23408 30.5895 1.75675 31.3947 2.36417 32.1152C4.52548 34.6438 12.1819 42.7239 13.8346 44.2354C14.3149 44.7157 14.9365 45.1678 15.5722 45.4079C16.7023 45.8317 17.6628 44.9841 17.4368 43.7693C17.3662 43.3314 17.1402 42.8793 16.8718 42.4979C16.0807 41.3961 15.2614 40.3225 14.3856 39.3054C11.7298 36.2541 9.04586 33.2029 6.31951 30.2223C5.41543 29.2334 4.35596 28.3717 3.2965 27.5383C2.50543 26.9167 1.38947 26.9591 0.895051 27.5383C0.315878 28.2305 0.330003 29.0357 0.753789 29.7702ZM38.4257 28.5009L38.4257 28.5009C38.1071 27.9914 37.821 27.5339 37.5807 27.0436C33.9926 19.7827 32.1138 11.9992 30.8848 4.04617C30.7436 3.11384 30.7295 2.11088 30.9414 1.22093C31.0544 0.740643 31.6759 0.175598 32.1986 0.0202104C32.5941 -0.0927979 33.3287 0.27448 33.5829 0.641761C34.0774 1.33394 34.4729 2.15326 34.713 2.98671C36.3093 8.48179 37.8773 13.9769 39.4029 19.4861C39.8451 21.1001 40.2527 22.7314 40.6595 24.3597C40.7726 24.8121 40.8855 25.2642 40.9992 25.7157C41.1828 26.4079 41.3241 27.1142 41.423 27.8064C41.5501 28.5834 41.3241 29.3462 40.533 29.5439C40.4829 29.5561 40.4331 29.5691 40.3833 29.582L40.383 29.5821C39.9142 29.7041 39.4562 29.8232 38.8944 29.2614C38.7319 28.9907 38.5752 28.7401 38.4257 28.5009ZM79.1108 30.8972L79.1105 30.8975C78.5482 31.3176 77.9526 31.7627 77.3319 32.1577C73.6449 34.4885 69.958 36.8193 66.2569 39.1078C65.4517 39.6022 64.5477 39.9695 63.6577 40.2379C62.4711 40.6051 61.6235 40.2944 61.115 39.5315C60.6065 38.7687 60.7195 37.8647 61.5953 36.9606C62.1886 36.339 62.8525 35.7033 63.573 35.2654C68.3335 32.4261 73.1223 29.615 77.911 26.8321C78.4478 26.5213 79.0835 26.2812 79.6909 26.2388C81.2024 26.1117 82.0359 27.4537 81.2589 28.7674C81.0625 29.0888 80.787 29.3764 80.4825 29.6943L80.4825 29.6944C80.3052 29.8794 80.1182 30.0748 79.9311 30.293C79.6668 30.4818 79.393 30.6864 79.1108 30.8972Z" fill="#FB782F"/>
</svg>
