<svg width="241" height="68" viewBox="0 0 241 68" fill="none" xmlns="http://www.w3.org/2000/svg">
<g style="mix-blend-mode:multiply" opacity="0.6">
<path d="M236.853 50.4023C237.385 50.2977 237.932 50.2977 238.464 50.4023C239.253 50.4858 240.002 50.7941 240.621 51.2907C240.737 51.3641 240.833 51.4657 240.899 51.5861C240.965 51.7065 241 51.8418 241 51.9792C241 52.1167 240.965 52.2519 240.899 52.3723C240.833 52.4927 240.737 52.5943 240.621 52.6677C240.197 52.9847 239.729 53.239 239.232 53.4229C238.966 53.4969 238.493 53.0527 238.316 53.1712C237.222 53.8375 235.833 53.4821 234.784 54.2225C234.311 54.5038 234.739 54.5038 234.784 54.874C234.828 55.2442 234.784 55.4811 234.326 55.2442C233.867 55.0073 233.498 54.5927 233.025 55.2442C232.789 55.5699 232.079 55.8068 231.917 55.9105C231.754 56.0141 231.798 56.2807 232.035 56.2807C232.552 56.3695 232.833 56.7249 232.833 57.1691V58.5313C232.816 58.6175 232.781 58.6992 232.731 58.7709C232.68 58.8427 232.615 58.903 232.54 58.9477C232.465 58.9925 232.381 59.0207 232.294 59.0306C232.206 59.0405 232.118 59.0319 232.035 59.0052C231.695 58.9163 231.547 58.7682 231.03 58.6646C230.513 58.5609 229.966 58.5758 229.434 58.4721C229.367 58.459 229.304 58.4316 229.249 58.392C229.194 58.3523 229.148 58.3013 229.115 58.2423C229.081 58.1833 229.06 58.1178 229.054 58.0501C229.048 57.9825 229.057 57.9143 229.079 57.8502C229.229 57.4435 229.407 57.0477 229.611 56.6656C229.818 56.2362 230.054 56.5472 230.247 56.6656C230.439 56.7841 230.631 56.7693 230.631 56.5176C230.678 56.2686 230.703 56.0159 230.705 55.7624C231.385 55.6884 231.119 54.6075 231.917 54.6075C231.958 54.6114 231.999 54.603 232.035 54.5833C232.071 54.5636 232.101 54.5336 232.12 54.497C232.139 54.4604 232.146 54.419 232.142 54.378C232.137 54.337 232.121 54.2983 232.094 54.2669C232.035 54.2077 231.887 54.1188 231.887 54.1188C231.004 54.0672 230.133 53.8876 229.301 53.5858C229.191 53.5589 229.077 53.561 228.968 53.592C228.86 53.6229 228.761 53.6816 228.682 53.7622C228.603 53.8429 228.546 53.9427 228.517 54.052C228.489 54.1612 228.489 54.2761 228.517 54.3854C228.616 54.7939 228.745 55.1948 228.902 55.5847C228.118 56.3547 227.365 57.1395 226.537 57.8354C226.315 58.0279 226.079 57.7762 225.517 58.0279C224.956 58.2796 225.783 58.6054 225.517 58.8275C225.328 58.9505 225.107 59.0159 224.882 59.0159C224.656 59.0159 224.436 58.9505 224.246 58.8275C224.039 58.7386 223.951 58.4129 223.581 58.6498C222.798 59.1384 222.133 59.1828 221.675 58.1019C221.527 57.7614 220.833 57.791 220.463 58.1019C220.255 58.2602 220.015 58.3724 219.761 58.4311C219.506 58.4898 219.242 58.4937 218.985 58.4425C217.936 58.3092 216.798 58.8275 215.823 58.0871C215.709 58.0249 215.582 57.9923 215.453 57.9923C215.324 57.9923 215.197 58.0249 215.084 58.0871C213.566 58.6417 211.902 58.6417 210.384 58.0871C209.44 57.9111 208.507 57.6787 207.591 57.3912C207.295 57.2593 206.963 57.236 206.652 57.3253C206.341 57.4147 206.072 57.611 205.891 57.8798C205.726 58.1536 205.459 58.3508 205.149 58.4284C204.839 58.5061 204.511 58.4579 204.236 58.2944C204 58.0969 203.701 57.9887 203.394 57.9887C203.086 57.9887 202.788 58.0969 202.551 58.2944C202.197 58.5313 201.724 58.635 201.428 58.9903C201.278 59.1573 201.093 59.2881 200.886 59.3727C200.678 59.4574 200.454 59.4937 200.231 59.479H194.792C193.714 59.479 192.797 58.7534 191.659 58.9459C191.304 59.0346 190.933 59.0448 190.573 58.9757C190.214 58.9067 189.873 58.7601 189.575 58.5461C189.176 58.9459 189.029 59.6863 188.231 59.5234C186.795 60.0737 185.24 60.2322 183.723 59.9824C182.482 59.168 181.092 59.5974 179.762 59.479C178.979 59.3901 178.137 59.6271 177.427 59.0052C177.308 58.9441 177.177 58.9122 177.043 58.9122C176.909 58.9122 176.778 58.9441 176.659 59.0052C175.92 59.7751 174.9 59.3457 174.117 59.7751C173.762 59.9644 173.366 60.0634 172.964 60.0634C172.562 60.0634 172.166 59.9644 171.811 59.7751C171.479 59.6503 171.131 59.5755 170.777 59.553C169.878 59.5802 168.98 59.4956 168.102 59.3013C167.452 59.0052 166.58 59.864 165.974 59.0052H163.018C162.014 58.9016 161 59.0439 160.062 59.4198C159.264 59.8492 158.097 59.2569 157.254 60.012C157.213 60.0341 157.168 60.0456 157.121 60.0456C157.075 60.0456 157.029 60.0341 156.988 60.012C155.836 59.2125 154.535 59.5678 153.308 59.5678C152.682 59.5344 152.056 59.6406 151.476 59.8788C151.009 60.08 150.506 60.1838 149.998 60.1838C149.49 60.1838 148.987 60.08 148.52 59.8788C147.329 59.4546 146.04 59.3877 144.811 59.6863C144.62 59.7519 144.418 59.7779 144.218 59.7626C144.017 59.7474 143.821 59.6911 143.643 59.5974C142.934 59.1236 142.21 60.2193 141.456 59.5974C140.217 60.0671 138.844 60.0353 137.628 59.5086C137.447 59.479 137.262 59.479 137.081 59.5086C136.52 59.4049 136.062 60.0416 135.382 59.5086C135.042 59.2273 134.333 59.4198 133.786 59.4198C133.343 59.3934 132.906 59.3087 132.485 59.168C131.216 58.7314 129.838 58.7314 128.569 59.168C127.18 59.627 125.702 60.4414 124.224 59.5234C123.929 59.6908 123.595 59.7788 123.256 59.7788C122.917 59.7788 122.583 59.6908 122.288 59.5234C121.583 59.3458 120.849 59.3106 120.13 59.4198H118.224H116.051C115.091 59.5086 114.233 60.0861 113.184 59.938C112.28 59.8493 111.369 59.8493 110.465 59.938C110.2 59.9526 109.942 60.0286 109.711 60.1601C108.943 60.6043 108.13 60.3082 107.332 60.397C106.473 59.8735 105.45 59.6937 104.465 59.8936C103.593 59.8936 102.632 59.5826 101.849 60.2638C100.903 59.5234 100.016 60.2193 99.1147 60.397C98.9348 60.418 98.7524 60.3983 98.5811 60.3394C98.4097 60.2804 98.2537 60.1838 98.1246 60.0565C97.8881 59.8492 97.4891 59.5086 97.3117 59.5974C97.1344 59.6863 97.0901 60.0564 96.9718 60.2934C96.7354 60.9301 95.9521 60.9745 95.4939 61.2706C95.0358 61.5668 95.1393 61.1077 95.0358 60.9153C94.6959 60.3082 94.6368 60.7228 94.4594 61.0485C94.1491 61.5964 93.6762 61.6408 93.4988 61.1374C93.1737 60.1305 92.2279 60.3082 91.5776 59.9528C91.5037 59.9084 91.3116 60.0564 91.1342 60.2045C90.9569 60.3526 90.75 60.323 90.75 60.0713C90.6909 59.479 90.3509 59.3605 89.8337 59.3605C89.3422 59.3448 88.8526 59.4299 88.3951 59.6107C87.9377 59.7915 87.5219 60.0641 87.1735 60.4118C86.8188 60.6783 87.0257 60.7524 87.1735 61.0781C87.3213 61.4039 87.543 61.0041 87.3213 61.3002C87.1306 61.4168 86.9175 61.4916 86.6958 61.5197C86.4742 61.5478 86.2492 61.5285 86.0356 61.4631C85.7843 61.3299 85.7843 61.0337 85.7843 60.7672C85.8526 60.6 85.9474 60.445 86.0651 60.3082C86.1981 60.1305 86.1686 59.938 85.9173 59.938C85.8309 59.9211 85.742 59.9215 85.6557 59.9393C85.5695 59.9571 85.4876 59.9919 85.4148 60.0416C85.2982 60.1641 85.2209 60.3189 85.1932 60.4859C85.1783 60.6682 85.1783 60.8514 85.1932 61.0337C85.1636 61.3447 85.2966 61.7296 84.868 61.8925C84.7835 61.6453 84.7144 61.3931 84.6611 61.1374C84.6462 60.96 84.6462 60.7817 84.6611 60.6043C84.6611 60.1897 84.5429 59.864 84.0848 59.864C83.7312 59.8644 83.3823 59.7833 83.065 59.627C82.8986 59.4832 82.6862 59.4041 82.4665 59.4041C82.2467 59.4041 82.0343 59.4832 81.8679 59.627C81.5813 59.8851 81.2249 60.0524 80.8435 60.1077C80.4621 60.1631 80.0729 60.104 79.725 59.938C79.3703 59.7899 78.8383 60.6339 78.3949 59.938H75.4392C75.1702 59.9611 74.921 60.0886 74.7446 60.2934C74.3837 60.7043 73.8912 60.9763 73.3518 61.0628C72.8123 61.1493 72.2597 61.0448 71.7888 60.7672C70.6716 60.4135 69.4871 60.3273 68.3306 60.5155C67.5621 60.5007 67.0153 61.552 66.6902 61.8333C66.365 62.1146 66.3798 61.9962 66.0251 61.6704C65.6704 61.3447 65.5374 61.3595 66.2025 60.9893C66.8675 60.6191 66.9118 60.3822 66.3207 59.7899C66.1729 59.6122 66.0104 59.2865 65.6852 59.6122C65.301 59.9972 64.9019 60.3674 64.4881 60.7228C64.4261 60.7877 64.3515 60.8394 64.269 60.8747C64.1864 60.91 64.0976 60.9282 64.0078 60.9282C63.9181 60.9282 63.8293 60.91 63.7467 60.8747C63.6642 60.8394 63.5896 60.7877 63.5275 60.7228C62.9659 60.2193 62.1088 60.5155 61.5767 59.9232C61.4142 59.7455 61.089 59.864 60.8378 60.012C60.3188 60.2695 59.7505 60.4121 59.1717 60.43C58.5928 60.4478 58.0169 60.3407 57.483 60.1157C57.331 60.0342 57.1729 59.9649 57.0101 59.9084C56.7037 59.8499 56.5558 60.0656 56.3956 60.299L56.3894 60.3082C55.9608 60.9301 55.9312 60.9449 55.2219 60.5747C55.1085 60.5102 54.9834 60.4691 54.854 60.4538C54.7245 60.4386 54.5933 60.4495 54.4681 60.4859C54.2612 60.5599 54.3351 60.7672 54.4681 60.8708C54.6012 60.9745 54.7637 61.2706 54.6012 61.315C54.4386 61.3595 54.2169 61.4335 54.1135 61.4335C53.7834 61.2043 53.4082 61.0487 53.013 60.9772C52.6178 60.9057 52.212 60.9199 51.8228 61.0189C51.542 61.0929 51.5272 61.2114 51.7341 61.4187C51.9314 61.6016 52.1142 61.7997 52.2809 62.011C52.3509 62.1332 52.3914 62.2701 52.3991 62.4108C52.3991 62.5292 52.2513 62.5292 52.1627 62.5292C52.0746 62.5444 51.9847 62.5444 51.8966 62.5292C51.5896 62.603 51.2687 62.5954 50.9655 62.5071C50.6623 62.4188 50.3873 62.2529 50.1675 62.0258C49.399 61.1522 48.3793 61.3743 47.4039 61.5964C47.3448 61.5964 47.2413 61.7593 47.2413 61.7593C47.3066 61.8227 47.3757 61.882 47.4482 61.9369C48.0098 62.1887 48.5862 62.4404 49.133 62.7069C49.2808 62.7809 49.2069 63.0623 49 63.0623C48.468 63.0623 47.9951 64.0247 47.4039 63.1807H44.729C44.6255 63.1955 44.4334 63.4473 44.4334 63.5953C44.4262 63.6838 44.401 63.7699 44.3594 63.8483C44.3178 63.9267 44.2607 63.9958 44.1915 64.0512C44.1223 64.1067 44.0425 64.1474 43.957 64.1709C43.8715 64.1943 43.7822 64.2 43.6944 64.1876C43.2363 64.1876 42.6304 64.3061 42.2166 63.8915C41.831 63.5052 41.3172 63.6587 40.8425 63.6815C40.777 63.8076 40.7347 63.9448 40.6796 64.0692C40.6497 64.0511 40.6197 64.0335 40.5895 64.0162C40.5565 64.0502 40.519 64.0797 40.4779 64.1039C40.4038 64.1476 40.3203 64.1726 40.2344 64.1769C40.1486 64.1811 40.063 64.1645 39.985 64.1284C39.6007 64.0099 39.3199 63.5657 38.9061 64.1284C38.7721 64.365 38.5674 64.5536 38.3209 64.6678C38.0744 64.782 37.7985 64.816 37.5317 64.7651C37.3093 64.7154 37.0781 64.7218 36.8588 64.7838C36.6395 64.8459 36.4391 64.9615 36.2755 65.1205C36.2172 65.1891 36.1448 65.2443 36.0631 65.2821C35.9814 65.32 35.8926 65.3396 35.8026 65.3396C35.7126 65.3396 35.6237 65.32 35.5421 65.2821C35.4604 65.2443 35.3879 65.1891 35.3297 65.1205C35.2051 64.9978 35.0444 64.9186 34.8714 64.8946C34.6983 64.8706 34.5222 64.903 34.369 64.9872L34.1938 65.0549C31.7117 66.0139 31.4408 66.1187 30.0684 65.7423C29.4921 65.5795 29.3443 65.7868 29.1817 66.1125C29.0191 66.4383 28.4723 66.5864 28.0881 66.7788C27.8505 66.8907 27.5956 66.9608 27.3344 66.9861C26.359 67.0898 25.6496 68.2151 24.6742 67.9634C23.7577 67.6253 22.8806 67.1884 22.0583 66.6604C21.7283 66.5234 21.4074 66.3652 21.0977 66.1866C20.9056 66.0829 20.8317 66.0681 20.6544 66.1866C20.1963 66.453 19.7235 66.6899 19.2507 66.9268L19.2504 66.9269C18.7184 66.4235 18.3341 66.7196 17.9794 67.1638C17.8689 67.3066 17.7244 67.4194 17.5592 67.4918C17.394 67.5643 17.2133 67.594 17.0336 67.5784C16.5902 67.5784 16.0286 67.7857 15.7035 67.5784C14.8315 67.0306 13.8118 67.2231 12.9251 66.8233C12.6041 66.682 12.2664 66.5825 11.9201 66.5271C11.329 66.4383 11.329 65.7572 11.329 65.535C11.329 65.3129 11.3438 64.8983 11.6984 65.1056C11.9691 65.3471 12.3188 65.4805 12.6812 65.4805C13.0436 65.4805 13.3934 65.3471 13.664 65.1056C13.9415 64.9663 14.2477 64.8937 14.5581 64.8937C14.8686 64.8937 15.1747 64.9663 15.4523 65.1056C15.7922 65.1945 16.2207 65.461 16.4424 65.5054C16.6641 65.5499 17.1518 65.4314 17.1518 65.3278C17.3144 64.4986 18.1568 64.1284 18.408 63.3732C18.7379 63.322 19.0638 63.2478 19.3834 63.1511C19.6051 63.0623 19.7529 62.8402 20.0484 63.0623C20.2509 63.2364 20.5041 63.3405 20.7703 63.3592C21.0365 63.3779 21.3016 63.3101 21.5263 63.1659C21.9528 62.926 22.4338 62.7999 22.9229 62.7999C23.4121 62.7999 23.893 62.926 24.3195 63.1659C24.5446 63.3095 24.8163 63.3603 25.0779 63.3079C25.3395 63.2555 25.5708 63.1038 25.7235 62.8846C25.7781 62.7923 25.8538 62.7144 25.9442 62.6569C26.0347 62.5995 26.1374 62.5644 26.244 62.5542C26.3506 62.5441 26.4581 62.5594 26.5577 62.5988C26.6573 62.6382 26.7461 62.7006 26.8171 62.7809C26.9362 62.826 27.0653 62.8374 27.1904 62.8139C27.3155 62.7904 27.4318 62.7329 27.5265 62.6477C28.1176 61.8333 29.1078 61.9221 29.8763 61.5223C30.2795 61.349 30.7186 61.2759 31.1561 61.3094C31.5936 61.343 32.0165 61.482 32.3887 61.7148C33.0833 62.011 33.9996 61.7148 34.7976 61.8037C35.8628 61.9182 36.9344 61.6563 37.8273 61.0633C38.1034 60.8398 38.4477 60.7178 38.8027 60.7178C39.1577 60.7178 39.502 60.8398 39.7781 61.0633C40.0911 61.2286 40.4529 61.2759 40.7978 61.1966C41.3742 61.0337 41.3003 60.3082 41.6845 59.9528C41.5811 59.8492 41.6106 59.7159 41.3594 59.6419C41.1082 59.5678 40.8126 59.6419 40.5613 59.5678C40.4979 59.5526 40.4382 59.5244 40.3862 59.485C40.3341 59.4456 40.2907 59.3958 40.2588 59.3388C40.2269 59.2818 40.2071 59.2187 40.2006 59.1537C40.1942 59.0886 40.2013 59.0229 40.2214 58.9607C40.246 58.8811 40.2879 58.8078 40.3441 58.7464C40.4003 58.6849 40.4695 58.6368 40.5466 58.6054C40.8124 58.5901 41.0788 58.5901 41.3446 58.6054C41.4622 58.5818 41.5696 58.5221 41.6517 58.4345C41.7338 58.3469 41.7866 58.2358 41.8028 58.1167C42.0648 58.1613 42.308 58.2818 42.5023 58.4634C42.6967 58.645 42.8337 58.8797 42.8964 59.1384H43.4284C43.857 59.8047 44.0639 59.8047 44.5073 59.1384H44.6255H45.9704C46.6354 59.1532 46.3989 58.4277 46.7684 58.2056C46.8697 58.12 46.998 58.073 47.1305 58.073C47.263 58.073 47.3913 58.12 47.4926 58.2056C47.8177 58.5461 47.9803 58.6202 48.3497 58.1167C48.7192 57.6133 49.1035 57.4504 49.6503 57.939C49.7981 58.0427 50.1675 57.939 50.4335 57.939C50.5164 57.9237 50.5945 57.8889 50.6613 57.8374C50.7281 57.7859 50.7817 57.7192 50.8178 57.6429C51.0247 57.1839 50.2414 56.3843 49.7833 56.3843C49.3251 56.3843 48.8966 56.9618 48.4236 56.3843L47.6108 57.1098C47.5417 57.199 47.4532 57.2712 47.352 57.3208C47.2509 57.3705 47.1397 57.3963 47.0271 57.3963C46.9144 57.3963 46.8032 57.3705 46.702 57.3208C46.6009 57.2712 46.5124 57.199 46.4433 57.1098C46.319 57.0043 46.1725 56.9284 46.0147 56.8878C45.9556 56.7545 46.1034 56.6212 45.8226 56.5324C45.5418 56.4435 45.4383 56.6656 45.4383 56.8878C44.6846 57.0802 44.0787 56.2362 43.458 56.3399C42.8373 56.4435 42.054 56.6212 41.6106 56.3399C40.6796 55.7476 39.9554 56.5768 39.0982 56.4731C38.2193 56.2875 37.3035 56.4022 36.4972 56.7989C35.9076 56.9963 35.281 57.057 34.6646 56.9766C33.9552 56.953 33.2492 57.0844 32.5956 57.3616C31.7237 57.791 30.9699 57.0506 30.2458 56.5768C30.2014 56.0141 29.8615 55.8364 29.3443 55.8364H27.0683L26.9797 55.8957V55.8364H26.9501C26.625 56.7249 25.7087 56.562 25.0437 56.8433C25.0141 56.8581 24.8515 56.636 24.7629 56.4287C24.6742 56.2214 24.7481 55.8068 24.3343 56.0289C23.9865 56.2318 23.5913 56.3387 23.1889 56.3387C22.7865 56.3387 22.3913 56.2318 22.0436 56.0289C21.8514 56.0289 21.7628 55.8957 21.6002 56.0289C20.8613 56.7249 20.1371 56.0734 19.3834 55.9253C18.6297 55.7772 18.3489 57.0358 17.5804 56.8729C16.5163 56.6508 15.7774 57.5985 14.7429 57.4652C13.7592 57.3854 12.7708 57.3854 11.7871 57.4652C11.3432 57.5253 10.8914 57.4727 10.4731 57.3123C10.0548 57.1519 9.68341 56.8888 9.39296 56.5472C8.52102 56.4435 8.43234 55.6143 8.0481 55.0665C7.98976 54.9985 7.95002 54.9166 7.93275 54.8286C7.91548 54.7407 7.92127 54.6497 7.94956 54.5647C7.97786 54.4796 8.02768 54.4034 8.09416 54.3434C8.16065 54.2835 8.24153 54.2418 8.32889 54.2225C8.85077 54.2002 9.3588 54.0475 9.80677 53.7783C9.99078 53.6489 10.2101 53.5795 10.4349 53.5795C10.6596 53.5795 10.879 53.6489 11.063 53.7783C11.3639 53.9749 11.7075 54.0963 12.0649 54.1324C12.4223 54.1685 12.7832 54.1181 13.1172 53.9856C13.7177 53.7294 14.3636 53.5973 15.0163 53.5973C15.6689 53.5973 16.3149 53.7294 16.9153 53.9856C17.5804 54.1336 18.2307 54.104 18.3932 53.2304C18.4376 52.9639 18.6297 52.9935 18.7627 53.2304L19.1026 53.8819C19.2107 53.7411 19.3001 53.5868 19.3686 53.4229C19.4868 52.8454 20.0337 53.0823 20.4031 52.6974C20.7726 52.3124 20.9943 52.8306 21.2899 52.8306C21.5458 52.868 21.8069 52.8157 22.0288 52.6825C22.2432 52.5197 22.4412 52.3362 22.6199 52.1347C22.8564 51.8978 23.152 51.9274 23.152 52.2531C23.1671 52.4325 23.2509 52.599 23.386 52.7177C23.521 52.8365 23.6967 52.8981 23.8761 52.8898C24.0517 52.9191 24.2317 52.9062 24.4012 52.8522C24.5708 52.7981 24.7252 52.7044 24.8515 52.5789C25.1211 52.3411 25.3204 52.0338 25.4279 51.6905C25.5314 51.2611 26.0634 51.2611 26.3146 51.2611C26.5659 51.2611 26.8614 51.0982 26.8614 50.9501C26.8614 50.8021 26.6693 50.6392 26.5215 50.5355C26.3122 50.3813 26.0769 50.266 25.8269 50.195C25.4722 50.1357 24.9698 50.4319 24.8811 49.8544C24.7924 49.2769 24.5707 48.5958 25.088 48.0628C25.3346 47.836 25.6018 47.6328 25.886 47.4557C26.0634 47.0707 26.2555 46.6857 26.4181 46.3007C26.4228 46.257 26.4172 46.2129 26.4018 46.1717C26.3864 46.1306 26.3616 46.0936 26.3294 46.0638C26.1964 46.0194 26.1964 45.9305 26.1964 45.9305C25.9008 46.1378 25.6644 46.4192 25.3836 46.6413C25.2518 46.7662 25.0773 46.8359 24.8959 46.8359C24.7144 46.8359 24.5399 46.7662 24.4082 46.6413C24.1865 46.4784 23.9648 46.3748 23.7579 46.6413C23.5498 46.9403 23.2623 47.175 22.928 47.3189C22.5938 47.4628 22.226 47.5102 21.8662 47.4557C21.5202 47.3479 21.1535 47.3239 20.7964 47.3857C20.4393 47.4474 20.1019 47.5932 19.812 47.811C19.073 47.2039 18.0829 47.6334 17.3144 47.204L16.1321 46.5969C15.467 46.2711 14.8168 45.7529 13.9892 46.2711C13.9005 46.3155 13.6492 46.1971 13.5162 46.0934C13.307 45.9342 13.0565 45.8384 12.7946 45.8174C12.5327 45.7964 12.2702 45.8511 12.0384 45.975C11.0482 46.5672 10.0432 46.2711 9.08261 46.2711C8.81777 46.2271 8.57698 46.0908 8.40279 45.8861C8.08704 45.5668 7.6815 45.3518 7.24043 45.2698C6.79937 45.1877 6.34381 45.2426 5.93474 45.4271C5.74088 45.5134 5.5282 45.5485 5.31696 45.529C5.10573 45.5096 4.903 45.4362 4.72812 45.3159C4.55323 45.1956 4.41203 45.0325 4.31797 44.842C4.22391 44.6515 4.18015 44.44 4.19084 44.2277C4.14651 43.2949 4.23518 43.1468 4.915 43.1172C5.59482 43.0876 5.97907 42.4361 6.67367 42.5249C7.21465 42.5694 7.75836 42.5694 8.29934 42.5249C9.02133 42.6035 9.75055 42.4697 10.3979 42.1399C10.6492 41.9623 10.8561 42.1399 11.4324 41.9623C12.0088 41.7846 12.3635 42.6138 12.9103 42.2436C13.3751 41.9607 13.9298 41.8654 14.4621 41.9771C15.5278 41.9372 16.5848 41.7681 17.6099 41.4736C18.6188 41.2295 19.5887 40.8458 20.4918 40.3335C20.4979 40.2693 20.4912 40.2045 20.4722 40.1428C20.4532 40.0812 20.4222 40.024 20.381 39.9744C20.3397 39.9249 20.2891 39.884 20.2321 39.8541C20.175 39.8243 20.1126 39.806 20.0484 39.8004H18.7036C18.4671 39.7708 18.4228 39.5931 18.5558 39.4303C18.9253 39.0157 18.9253 38.2901 19.546 37.9496L22.0436 37.1944H23.9648C24.8368 37.1944 25.1914 37.5053 25.4427 38.6751C25.5461 39.1045 25.7087 39.3266 26.1225 39.3266C26.4818 39.3488 26.8421 39.3488 27.2014 39.3266C27.29 39.3118 27.4526 39.0157 27.4526 39.0009C27.4526 38.9861 27.3344 38.8232 27.2605 38.8232C26.99 38.8453 26.7181 38.8453 26.4476 38.8232C26.3294 38.8084 26.0486 38.6159 26.1225 38.5566C26.1964 38.4974 26.2703 38.3938 26.3442 38.3938C26.7875 38.3049 27.4378 38.3345 27.6891 38.3049C27.9403 38.2753 28.1324 38.1865 27.9403 37.7867C27.5413 36.9575 27.4674 36.6465 28.295 36.7058C29.1226 36.765 29.8172 36.1283 30.6005 36.1875C31.3837 36.2467 31.9453 35.7581 32.6252 35.5952C32.9207 35.5212 33.4675 35.61 33.4232 35.2695C33.3789 34.9289 32.9207 35.0474 32.4626 35.0474H31.1029C30.0308 34.9453 28.95 35.108 27.9551 35.5212C27.6743 35.6841 27.3639 35.5804 26.9797 35.8914C26.5954 36.2023 26.3146 35.5952 26.0634 35.6545C25.8122 35.7137 25.5757 35.9358 25.3392 35.9358C25.0863 36.0042 24.8297 36.0586 24.5707 36.0987C23.9057 36.2171 23.4032 35.2103 22.5904 35.9062C21.9697 36.3948 21.2012 36.1135 20.4918 36.1135C20.1386 36.1026 19.7908 36.2023 19.4968 36.3987C19.2028 36.5951 18.9772 36.8784 18.8514 37.2092C18.4228 38.068 17.8316 37.9347 17.2553 36.9723C17.2109 36.8835 17.2109 36.7058 17.0779 36.7798C16.9449 36.8538 16.7232 36.7946 16.7232 37.0463C16.7232 37.2981 16.7971 37.4905 16.7232 37.8607C16.6493 38.2309 16.0434 38.4382 15.9252 38.1421C15.822 37.8055 15.5955 37.5207 15.2911 37.3448C14.9867 37.169 14.6271 37.1152 14.2847 37.1944C14.0151 37.2319 13.7415 37.2319 13.4719 37.1944C13.2923 37.1021 13.1357 36.9706 13.0138 36.8094C13.1459 36.7004 13.2959 36.6152 13.4571 36.5577C13.7823 36.5133 13.9596 36.3652 13.9596 36.0543C13.9265 35.8924 13.8665 35.7373 13.7823 35.5952C13.1024 36.4096 12.0384 35.6989 11.2551 36.2616C10.93 36.4985 10.7969 36.3356 10.7378 35.8322C10.6787 35.3287 10.5309 34.9437 9.99889 34.9437H8.37323C8.14832 34.9664 7.92137 34.9306 7.71428 34.8399C7.50719 34.7491 7.32694 34.6064 7.19093 34.4255C6.64412 33.7444 5.94951 33.7888 5.28447 34.1145C4.61943 34.4403 4.0135 35.077 3.14155 34.9437C3.14155 34.3663 3.09722 33.774 2.29916 33.774C2.01837 33.7444 1.575 33.4778 1.50111 33.3298L1.50108 33.3297C1.4272 33.1817 1.36809 33.0632 1.29421 32.8708C1.22031 32.6783 0.850846 32.471 1.29421 32.3081C1.55109 32.2416 1.8206 32.2416 2.07748 32.3081C2.69819 32.3525 3.05288 32.2044 3.23022 31.5233C3.33368 31.1235 3.79182 30.8422 4.05783 30.472C4.08739 30.4424 3.83615 30.1611 3.83615 30.1611H0.33359C0.21536 30.1611 -0.0506578 29.9242 0.00845722 29.8649C0.0675722 29.8057 0.200581 29.702 0.200581 29.702C0.969076 29.8057 1.51589 29.243 2.16615 29.0357C2.50607 28.9173 2.78686 28.5767 3.11199 28.5767C3.67359 28.4731 4.44208 28.6359 3.74748 27.6735C4.03252 27.3287 4.34919 27.0114 4.69332 26.7258C5.28447 26.2964 5.1958 25.9411 4.82633 25.4228C4.63421 25.1563 4.73766 24.7269 4.63421 24.4011C4.58987 24.2975 4.38297 24.1642 4.23518 24.1642C4.07261 23.0685 3.91005 23.0685 3.46668 23.0685H2.10704C1.9427 23.029 1.78386 22.9693 1.63412 22.8908C1.70275 22.7292 1.80329 22.5831 1.92969 22.4614C2.44695 22.1209 2.97899 21.8099 3.5258 21.5138C4.82633 20.7882 4.90022 20.6846 4.72288 19.2039C4.7081 19.1002 4.4273 18.9225 4.41252 18.9225C4.39775 18.9225 4.24996 19.041 4.24996 19.115C4.20811 19.4749 4.02785 19.8042 3.74748 20.0331C3.5258 20.2404 3.23022 20.2107 3.09722 20.0331C2.96421 19.8554 2.56518 19.6777 2.77208 19.4556C3.3189 18.9077 3.12677 18.2562 3.12677 17.6491C3.0989 17.2858 3.19686 16.924 3.40414 16.6247C3.61142 16.3253 3.91535 16.1066 4.26474 16.0056C4.69592 15.8933 5.09874 15.6916 5.44704 15.4133C6.27465 14.6137 6.85102 14.9839 7.47173 15.665C7.82642 16.0944 8.255 16.0204 8.63925 15.665C8.81534 15.4563 9.03143 15.2851 9.27473 15.1616C9.59986 14.9987 10.0432 14.8654 10.2945 14.9987C11.0849 15.4234 11.9824 15.6063 12.8756 15.5247C13.7688 15.4431 14.6185 15.1006 15.3192 14.5396C15.4671 14.4371 15.6419 14.3805 15.8217 14.3768C16.7971 14.4952 16.7971 13.8141 16.7971 13.1774C16.8035 13.1105 16.8255 13.0461 16.8613 12.9893C16.8971 12.9325 16.9457 12.8849 17.0032 12.8503C17.0607 12.8158 17.1255 12.7952 17.1924 12.7903C17.2593 12.7854 17.3264 12.7962 17.3883 12.822C17.5482 12.8785 17.6838 12.9882 17.7725 13.133C17.7725 13.2811 17.6838 13.4439 17.7725 13.666C17.8612 13.8881 17.9646 14.2879 18.142 14.2879C18.3155 14.3428 18.5028 14.3343 18.6706 14.2638C18.8384 14.1933 18.9757 14.0654 19.0583 13.9029C19.3095 13.5476 19.4425 13.1034 19.7085 12.7628C19.8344 12.5738 20.0063 12.4202 20.2081 12.3165C20.4098 12.2129 20.6347 12.1626 20.8613 12.1705C20.9531 12.168 21.0444 12.1851 21.1292 12.2205C21.214 12.256 21.2903 12.3091 21.3532 12.3762C21.416 12.4434 21.4639 12.5231 21.4938 12.6101C21.5236 12.6972 21.5347 12.7896 21.5263 12.8813C21.5559 13.3107 21.6298 13.7845 21.0386 13.9178C20.9204 14.436 20.477 14.436 20.0632 14.436C19.9824 14.4257 19.9004 14.4319 19.822 14.4541C19.7437 14.4763 19.6706 14.5141 19.6071 14.5652C19.5437 14.6163 19.4911 14.6798 19.4527 14.7517C19.4143 14.8236 19.3907 14.9026 19.3834 14.9839C19.2891 15.0024 19.2019 15.0468 19.1314 15.1122C19.0609 15.1776 19.01 15.2613 18.9844 15.354C18.8661 16.2277 19.1026 17.1309 18.4671 17.9453C18.1568 18.3451 18.8809 19.2927 19.5016 19.1891C20.1223 19.0854 20.6987 18.271 21.349 19.1891C22.2209 18.4931 23.285 19.0262 24.1717 18.7004C25.0584 18.3747 26.2851 18.5524 26.8023 17.3086C26.9206 16.9976 27.5413 16.8792 27.9255 16.6719C29.0487 17.6787 29.6546 16.3757 30.5266 16.198C30.6005 16.1684 30.6891 16.0796 30.763 16.0796C32.8321 16.3757 34.576 14.7173 36.6745 14.895C37.5757 14.5621 38.5058 14.3143 39.4529 14.1547C39.5564 14.1251 39.6007 13.8289 39.5564 13.666C39.5121 13.5032 39.3495 13.3847 39.1869 13.5032C39.1079 13.5645 39.0239 13.619 38.9357 13.666C38.2559 13.8881 37.6352 12.8665 37.0144 13.3995C36.3937 13.9326 35.6252 13.666 34.9159 13.666C34.8336 13.688 34.7469 13.688 34.6646 13.666C34.2213 13.4587 34.5464 13.2514 34.6646 13.0589C34.7829 12.8665 34.7385 12.7036 34.5168 12.7036C33.2754 12.8961 33.172 11.3858 32.2261 11.2229C32.2705 10.986 32.2557 10.5418 32.3739 10.5418C33.0094 10.3345 33.7188 10.3789 33.97 9.49046C34.0587 9.23874 35.0784 9.20912 35.1671 9.49046C35.5218 10.7491 37.1031 10.216 37.576 11.2673L37.5817 11.2806C37.6661 11.4783 37.7007 11.5593 37.9898 11.3709C38.2854 11.1785 38.6105 11.0304 38.9209 10.8675L41.522 9.52007C42.3052 9.13508 43.3397 9.5793 44.0196 8.80934C45.261 9.19432 45.9113 8.1134 46.8275 7.71361C46.8377 7.7962 46.8665 7.87539 46.9118 7.94516C46.9571 8.01492 47.0177 8.07343 47.0889 8.11625C47.1601 8.15907 47.2401 8.18506 47.3229 8.19227C47.4056 8.19947 47.4889 8.18769 47.5665 8.15782C47.8741 8.04705 48.1709 7.90828 48.4532 7.74323C48.5102 7.94551 48.6095 8.13331 48.7446 8.29415C48.8796 8.45499 49.0473 8.58518 49.2365 8.67607C49.5468 8.86856 50.5074 8.3207 50.5074 7.95052C50.5074 7.86168 50.2562 7.77284 50.1084 7.684L49.6503 7.43228C49.7094 7.37305 49.7537 7.25459 49.8276 7.25459C50.4345 7.15307 51.0194 6.94772 51.5567 6.64751C51.8671 6.42541 52.1035 6.81039 52.5026 7.01769C52.9016 7.22498 53.3006 7.06211 53.3006 6.69193C53.2415 5.996 53.7883 5.61102 53.9066 4.95951C54.0248 4.308 54.4386 4.64856 54.6012 4.76701C54.7637 4.88547 54.9706 4.82625 54.9706 4.58934C54.9728 4.47696 54.9996 4.36644 55.049 4.26552C55.0984 4.16461 55.1692 4.07575 55.2565 4.0052C55.3439 3.93464 55.4456 3.88409 55.5545 3.85711C55.6633 3.83012 55.7768 3.82735 55.8869 3.84898H58.0594C58.3189 3.89505 58.5852 3.8845 58.8402 3.81806C59.0953 3.75163 59.333 3.63086 59.5373 3.464C59.6063 3.41279 59.6862 3.37815 59.7708 3.36274C59.8553 3.34734 59.9423 3.35159 60.025 3.37516C60.6161 4.1007 61.2812 3.65648 61.9314 3.53803C62.2918 3.80837 62.73 3.95449 63.1802 3.95449C63.6305 3.95449 64.0686 3.80837 64.429 3.53803C64.8914 3.20508 65.3537 3.42408 65.8713 3.66925L65.9069 3.68611C66.8232 4.11551 66.8971 4.04147 66.8971 4.61894C66.8747 4.80087 66.8747 4.98488 66.8971 5.16681C66.9741 5.31874 67.1063 5.4353 67.2665 5.49255C67.3296 5.51328 67.3961 5.5213 67.4623 5.51612C67.5285 5.51094 67.593 5.49268 67.6521 5.46239C67.7112 5.4321 67.7636 5.3904 67.8066 5.33966C67.8495 5.28893 67.8819 5.23018 67.902 5.16681C67.9907 4.7374 68.035 4.08589 68.2863 3.9082C68.5375 3.73052 68.7592 3.33074 69.1287 3.73053C69.4981 4.13031 69.8528 3.30112 70.2223 3.73053C70.5918 4.15993 71.0351 3.83417 71.4194 3.59726C71.4637 3.56764 71.7445 3.78975 71.7445 3.83417C71.7445 3.87859 71.7002 3.84898 71.7445 4.1007C71.7888 4.35242 71.7741 4.82624 71.9218 4.82624C72.3061 5.01873 72.38 4.63375 72.6903 4.35242C73.0007 4.07108 73.2372 4.17473 73.5771 4.35242C73.917 4.5301 74.2421 4.11551 74.3012 3.78975C74.3603 3.464 73.9761 3.464 73.7396 3.464C73.6587 3.41936 73.5921 3.3526 73.5475 3.2715C73.5327 3.24189 73.5771 3.22709 73.6362 3.10863C73.6953 2.99018 73.8579 2.99017 73.8579 2.99017C75.1436 3.18267 76.2668 2.39789 77.5378 2.39789H79.9763C80.3288 2.41939 80.6698 2.53159 80.9664 2.72365C81.7349 3.24189 82.5478 2.96055 83.331 2.96055C83.9813 2.26462 84.868 2.56076 85.6365 2.38308C85.9025 2.38308 86.1981 1.76118 86.405 2.38308C86.4641 2.57557 86.3607 2.87171 86.139 3.07901C85.9173 3.28631 85.8878 3.464 86.139 3.464C86.7604 3.56701 87.3945 3.56701 88.0159 3.464C88.547 3.24988 89.1401 3.24988 89.6711 3.464C90.0702 3.65649 90.4396 2.84211 91.0603 3.37516C91.4298 3.71572 92.0505 3.464 92.5382 3.13824C92.6526 3.07975 92.7792 3.04925 92.9077 3.04925C93.0361 3.04925 93.1627 3.07975 93.2771 3.13824C93.745 3.54882 94.3403 3.78428 94.9619 3.80455C95.9817 3.8934 96.7206 3.61207 96.9718 2.50154C96.9866 2.4275 97.0457 2.16098 97.1344 2.29424C97.2231 2.42751 97.3856 2.57557 97.3856 2.70884C97.3431 3.0531 97.2789 3.39434 97.1935 3.73053C97.1492 3.8934 96.7945 3.96744 97.0014 4.15993C97.2083 4.35242 97.4743 4.26358 97.7403 4.15993C98.0485 3.99567 98.3763 3.87128 98.7157 3.78975C99.7815 3.86828 100.851 3.6906 101.834 3.2715C102.144 3.07901 102.78 3.2715 103.312 3.2715C103.318 3.39803 103.369 3.5182 103.456 3.61045C103.543 3.7027 103.659 3.76102 103.785 3.77494H105.943C106.831 3.72817 107.721 3.85904 108.558 4.15993C109.018 4.34855 109.519 4.41362 110.011 4.34869C110.504 4.28376 110.971 4.09109 111.366 3.78975C111.765 3.55284 112.401 3.07902 112.992 3.78975C113.125 3.93782 113.775 3.86379 113.997 3.6713C114.793 2.96245 115.427 3.62333 115.797 4.00877L115.8 4.01185C116.169 4.39683 116.362 4.20435 116.435 3.73053C116.45 3.58245 116.642 3.34554 116.731 3.34554C117.603 3.44919 117.972 2.94576 118.342 2.26463C118.475 2.01291 118.948 1.93887 119.288 1.80561C119.555 1.64517 119.87 1.58397 120.178 1.63269C120.486 1.6814 120.767 1.83693 120.973 2.07213C121.608 2.72364 121.667 2.66442 122.347 1.86484C122.37 1.78755 122.37 1.70522 122.347 1.62793C122.805 1.42063 123.263 1.21333 123.721 0.976417C124.904 0.384136 124.948 0.413748 125.051 1.76119V2.29424C125.057 2.33841 125.072 2.3809 125.095 2.41911C125.118 2.45731 125.148 2.49041 125.184 2.51635C125.333 2.49633 125.475 2.44045 125.598 2.35347C125.877 2.1214 126.061 1.79466 126.116 1.43543C126.189 1.02083 125.894 0.428559 126.367 0.191647C126.784 0.045532 127.228 -0.00506299 127.667 0.0435786C128.559 -0.0794737 129.468 0.0593954 130.283 0.443363C130.653 0.650662 131.495 0.443363 132.13 0.443363C132.766 0.443363 132.766 0.443364 132.663 1.45024C132.649 1.58388 132.681 1.71822 132.753 1.83123C132.826 1.94423 132.934 2.02918 133.062 2.07213H133.328C133.919 2.29424 134.377 1.43543 134.805 1.80561C135.234 2.17578 135.825 2.07213 136.283 2.07213H137.643C138.184 2.04252 138.727 2.04252 139.269 2.07213C139.609 2.11656 139.564 2.30905 139.402 2.63481C139.239 2.96056 138.943 2.54596 139.239 2.8569C139.535 3.16785 140.554 3.22708 140.717 2.8569C140.791 2.70883 140.554 2.4127 140.451 2.19059C141.116 2.01291 141.648 1.49466 142.431 1.49466C142.978 1.53908 142.816 1.96849 142.682 2.13136C142.549 2.29424 142.579 2.50154 142.83 2.50154C143.095 2.531 143.363 2.531 143.628 2.50154H145.224H145.742C145.896 2.90899 146.182 3.25298 146.555 3.47881C147.589 2.51635 148.993 3.43438 150.116 2.75326C150.45 2.526 150.844 2.40448 151.247 2.40448C151.65 2.40448 152.044 2.526 152.377 2.75326C152.51 2.91613 152.836 2.91613 152.836 2.91613C153.628 2.38705 154.303 2.80615 154.92 3.18887L154.934 3.19747C155.27 3.41074 155.66 3.52396 156.057 3.52396C156.455 3.52396 156.844 3.41074 157.18 3.19747C157.506 3.07902 157.786 2.70884 158.126 3.07901L158.157 3.11256C158.475 3.46029 158.626 3.62442 158.998 3.07901C159.382 2.51635 159.782 2.47192 160.269 2.97536H160.786C161.57 2.91614 161.57 3.47881 161.57 3.99705C162.146 3.8934 162.56 3.22709 163.24 3.47881C163.386 3.55059 163.517 3.65131 163.624 3.77494C163.592 3.855 163.541 3.92613 163.476 3.98224C163.284 4.17473 163.077 4.48569 162.87 4.48569C162.102 4.5153 162.161 5.21122 161.865 5.61101C161.792 5.74474 161.742 5.88994 161.718 6.04042C161.895 6.14407 162.117 6.14407 162.205 6.14407C162.984 5.69941 163.889 5.52748 164.777 5.65543C165.678 5.6301 166.535 5.25907 167.171 4.61894C167.301 4.53432 167.412 4.42335 167.496 4.29319C167.511 4.01185 167.393 3.8934 166.949 3.86378C166.506 3.83417 166.062 3.73053 165.619 3.73053C165.572 3.7253 165.527 3.70811 165.488 3.68059C165.449 3.65307 165.418 3.61612 165.397 3.57319C165.376 3.53027 165.367 3.48278 165.37 3.43519C165.372 3.3876 165.387 3.34147 165.412 3.30112C165.486 3.13824 165.56 2.88652 165.663 2.88652C166.808 2.63666 168.004 2.83818 169.003 3.44919C169.078 3.55263 169.118 3.67697 169.118 3.80455C169.118 3.93214 169.078 4.05649 169.003 4.15993C168.853 4.24876 168.695 4.32312 168.531 4.38203C168.176 4.58932 167.88 5.03354 168.087 5.18161C168.294 5.32968 168.604 5.46294 168.797 5.46294C169.861 5.1668 170.851 4.9447 171.338 3.77494C171.619 3.12344 171.841 3.16786 172.373 3.95263C172.536 4.18955 172.624 4.38203 172.964 4.39684C173.304 4.41164 173.688 4.33761 173.94 4.66336L173.023 5.152C172.713 5.30007 172.27 5.50736 172.077 5.61101C171.885 5.71466 171.93 5.87754 172.166 5.996C172.561 6.19009 172.965 6.36308 173.378 6.51424C173.441 6.53424 173.508 6.54026 173.574 6.5319C173.639 6.52353 173.703 6.50098 173.759 6.46579C173.815 6.4306 173.863 6.38361 173.899 6.32807C173.936 6.27253 173.959 6.20974 173.969 6.14407C174.102 5.65543 174.442 5.31487 174.9 5.65543C176.097 6.47459 177.564 6.79823 178.994 6.55866C179.12 6.54474 179.236 6.48643 179.323 6.39418C179.41 6.30192 179.461 6.18176 179.467 6.05523L180.457 5.81831C180.693 5.74427 181.048 5.47775 181.152 5.55178C181.861 6.08484 182.689 5.92196 183.457 6.08484C183.812 6.15887 183.989 6.54385 184.344 7.03249C184.698 7.52112 185.038 7.90611 185.6 7.63958C186.162 7.37305 186.649 6.89923 187.27 7.52112C188.585 7.52112 189.93 8.06898 191.186 7.22498C191.265 7.1809 191.354 7.15776 191.445 7.15776C191.535 7.15776 191.625 7.1809 191.704 7.22498C192.31 7.81726 192.827 7.10652 193.004 6.92884C193.181 6.75115 193.359 6.60308 193.595 6.92884C194.246 7.75803 194.305 7.81726 195.073 7.46189C195.62 7.21017 195.827 7.41748 195.945 7.81727C196.063 8.21706 196.477 8.24667 196.817 7.96534C196.894 7.88426 196.987 7.81972 197.09 7.77563C197.193 7.73153 197.304 7.70879 197.416 7.70879C197.527 7.70879 197.638 7.73153 197.741 7.77563C197.844 7.81972 197.937 7.88426 198.014 7.96534C198.118 8.0986 198.339 8.09859 198.428 8.09859C199.416 7.671 200.516 7.57744 201.561 7.83207C201.635 7.83207 201.827 7.92091 201.768 7.98013C201.709 8.03936 201.576 8.15782 201.576 8.15782L199.462 8.30589C199.389 8.30589 199.167 8.35031 199.256 8.46877C199.344 8.58722 199.448 8.77971 199.536 8.77971C200.518 8.69076 201.505 8.87523 202.389 9.31277C202.743 9.53487 203.142 9.34239 203.615 8.97221C204.088 8.60204 204.443 8.9426 204.753 9.26835C204.848 9.34903 204.908 9.46295 204.922 9.58681C204.936 9.71067 204.902 9.8351 204.827 9.93466C204.266 11.06 203.807 11.3413 202.522 10.7491C201.859 10.4717 201.139 10.3599 200.423 10.4233C200.108 10.4175 199.801 10.5295 199.564 10.7375C199.326 10.9455 199.174 11.2346 199.137 11.5486C199.994 12.3186 201.221 11.8152 202.093 12.4519C202.182 12.5259 202.507 12.1261 202.758 12.1261C203.453 11.9336 204.103 11.1192 204.931 11.9336C204.975 11.9928 205.477 11.6375 205.61 11.6079C205.743 11.5782 205.936 11.7559 206.098 11.7559C206.005 11.8907 205.926 12.0346 205.862 12.1853C205.625 12.7776 205.655 12.8072 206.246 13.1626C206.438 13.2662 206.763 13.1922 206.571 13.6512C206.172 14.6581 206.216 14.7025 207.266 14.8358C206.955 15.4429 206.645 16.0648 206.349 16.6867C206.246 16.9236 206.172 17.2197 206.453 17.3974C206.564 17.4738 206.695 17.5147 206.83 17.5147C206.964 17.5147 207.096 17.4738 207.207 17.3974C207.413 17.2493 207.783 17.0272 207.901 17.1013C209.069 17.8416 210.354 17.4714 211.581 17.5751C212.127 17.6047 212.675 17.6047 213.221 17.5751C213.627 17.5105 214.041 17.6077 214.375 17.8458C214.71 18.0839 214.937 18.4439 215.01 18.8485C215.084 19.0854 215.32 19.4112 215.32 19.5296C214.995 20.0034 214.921 20.3292 215.645 20.3292H217.611H225.503C225.724 20.3292 226.168 20.344 225.961 20.655C225.517 21.3805 225.916 21.3805 226.434 21.3805C226.606 21.3854 226.776 21.4205 226.936 21.4841C227.025 21.499 227.202 21.5878 227.143 21.647C227.084 21.7063 226.951 21.8247 226.951 21.8247L225.251 22.3281C224.882 21.647 224.32 22.6687 223.936 22.1653L222.015 22.6095C221.725 22.7836 221.776 23.0713 221.82 23.3196L221.823 23.335C221.867 23.5867 222.015 24.0161 222.118 24.0161C223.708 24.302 225.343 24.2107 226.892 23.7496C227.749 23.3794 228.769 23.3943 229.685 23.0833C230.217 23.794 230.838 22.7279 231.325 23.0833C231.746 23.4133 232.27 23.5814 232.803 23.5571C232.884 23.5786 232.959 23.6194 233.021 23.6762C233.083 23.7329 233.13 23.8039 233.158 23.8829C233.195 24.0115 233.187 24.1488 233.136 24.2725C233.085 24.3962 232.994 24.499 232.877 24.564C231.748 25.1273 230.469 25.314 229.227 25.0971C228.414 24.2234 227.35 24.7269 226.389 24.6232C225.813 24.5788 225.665 24.8009 225.665 25.1563C225.672 25.2907 225.726 25.4183 225.818 25.5161C225.91 25.6139 226.034 25.6753 226.168 25.6893C226.626 25.7634 226.685 26.0743 226.714 26.4889C226.744 26.9035 226.522 27.2885 226.212 27.2885H223.256C222.902 27.3033 222.547 27.3773 222.414 27.8216C222.355 28.014 222.37 28.3842 222 28.1917C221.808 28.1473 221.897 27.8808 221.808 27.7179C221.719 27.555 221.527 27.4958 221.468 27.555C221.409 27.6143 221.32 27.481 221.32 27.7623C221.32 28.0437 221.187 28.4731 221.32 28.5619C222.03 29.0505 221.039 29.8945 221.764 30.4128C221.97 30.546 221.882 31.1235 222.384 31.1235C222.56 31.1573 222.742 31.155 222.917 31.1168C223.092 31.0787 223.258 31.0054 223.404 30.9014L224.217 30.1907C224.808 31.0051 225.769 30.3239 226.463 30.7385C226.655 30.8274 226.611 30.9903 226.463 31.1679C226.315 31.3456 226.286 31.5529 226.463 31.5529C226.995 31.6418 227.542 31.6566 228.059 31.7454C228.178 31.7602 228.325 31.9971 228.34 32.1452C228.355 32.2933 228.281 32.6042 228.178 32.6042C227.305 32.7408 226.449 32.964 225.621 33.2705C225.399 33.389 224.926 33.2113 224.631 33.0484C224.409 32.9175 224.159 32.8411 223.902 32.8257C223.645 32.8102 223.389 32.8561 223.153 32.9596L221.675 33.8184C221.407 34.052 221.115 34.2556 220.803 34.4255C220.256 34.6476 220.256 34.7512 220.803 34.9733C221.134 35.1093 221.428 35.3225 221.66 35.5952C222.074 36.0395 222.34 35.7581 222.783 35.5952C223.158 35.4577 223.659 35.3413 223.939 35.7364C223.983 35.721 224.033 35.7161 224.084 35.7145C224.084 35.7142 224.084 35.714 224.084 35.7137H224.158C224.133 35.7137 224.108 35.7137 224.084 35.7145C224.084 35.7725 224.059 35.8341 224.026 35.894C224.042 35.9298 224.056 35.9684 224.069 36.0098H224.291C224.42 36.2242 224.51 36.4599 224.557 36.7058C224.557 36.7946 224.32 37.0019 224.187 37.0019H222C221.571 37.0019 221.365 37.224 221.365 37.6682C221.331 38.0169 221.225 38.3548 221.054 38.6603C220.788 39.1489 221.128 39.1489 221.335 39.1489H230.853C231.828 39.1637 232.848 38.8528 233.734 39.5931H234.266C235.05 39.7412 235.922 39.4303 236.646 39.8893C237.37 40.3483 238.227 39.9929 238.996 40.2298C239.084 40.2447 239.336 40.2891 239.217 40.3927C239.099 40.4964 238.981 40.6889 238.848 40.6889C238.401 40.6438 237.95 40.6438 237.503 40.6889C237.104 40.7777 236.764 41.1331 236.35 40.6889C235.818 40.9702 235.271 41.2663 234.71 41.5181C234.621 41.5625 234.429 41.37 234.281 41.2663C233.705 40.8369 232.641 41.2219 232.227 40.8369C231.813 40.4519 231.651 41.059 231.34 41.059C230.69 41.1331 229.921 41.2367 229.212 41.2367C229.153 41.2367 229.064 41.3996 229.064 41.3996C229.107 41.4772 229.168 41.5432 229.242 41.5921C229.324 41.6134 229.41 41.6134 229.493 41.5921C229.585 41.593 229.675 41.6171 229.755 41.6623C229.836 41.7074 229.903 41.7721 229.952 41.8503C230 41.9286 230.029 42.0179 230.034 42.1099C230.039 42.2019 230.02 42.2938 229.981 42.3769C229.916 42.5777 229.778 42.747 229.595 42.8511C229.411 42.9553 229.196 42.9868 228.99 42.9395C228.65 42.8507 228.355 42.5842 228 42.8507L225.99 42.7618C225.872 42.7031 225.739 42.6802 225.608 42.696C225.476 42.7117 225.353 42.7655 225.251 42.8507C225.074 43.0136 224.808 43.2505 224.645 42.8507C224.622 42.7663 224.616 42.6778 224.629 42.591C224.641 42.5043 224.672 42.4212 224.719 42.3473C224.911 42.0659 225.089 41.7846 224.793 41.4884C224.498 41.1923 224.158 41.2367 223.921 41.3996C223.685 41.5625 223.434 41.3996 223.168 41.3996C222.493 41.1695 222.432 41.2467 222.32 41.387L222.31 41.3996C222.192 41.5477 221.97 41.6661 221.97 41.829C221.704 42.9099 220.921 43.1616 219.931 43.1616C219.412 43.1045 218.89 43.2301 218.453 43.517C218.22 43.6503 217.951 43.7072 217.685 43.6799H212.246C210.82 43.201 209.31 43.0246 207.812 43.1616C207.546 43.1468 207.207 43.1912 207.029 43.0432C206.541 42.6434 206.187 42.9988 205.936 43.2653C205.684 43.5318 205.433 43.7243 205.049 43.4133C204.826 43.265 204.563 43.1876 204.295 43.1912H192.058C191.997 43.1893 191.936 43.1997 191.878 43.2218C191.821 43.244 191.769 43.2775 191.725 43.3203C191.681 43.3632 191.646 43.4144 191.622 43.4711C191.598 43.5278 191.585 43.5887 191.585 43.6503H192.605C192.826 43.6073 193.054 43.6229 193.266 43.6957C193.479 43.7684 193.669 43.8957 193.817 44.0649C194.042 44.3503 194.344 44.5649 194.687 44.6831C195.031 44.8012 195.4 44.8179 195.753 44.7312C197.068 44.6275 198.457 45.0273 199.699 44.2277C200.793 44.2277 201.93 44.3166 202.965 44.2277C204 44.1389 204.812 44.8348 205.817 44.8348C206.407 45.2584 207.139 45.4337 207.857 45.3235H210.591C210.857 45.3235 211.197 45.4567 211.374 45.3235C211.861 44.9901 212.444 44.8281 213.033 44.8629C213.621 44.8977 214.181 45.1274 214.625 45.516C215.348 45.8824 216.152 46.0558 216.96 46.0194C217.197 46.0342 217.463 45.9898 217.463 46.3303C217.463 46.3896 217.315 46.4044 217.005 46.5228C216.694 46.6413 216.709 46.8782 216.887 47.0707C217.064 47.2632 217.079 47.4705 216.887 47.4705C216.355 47.5741 215.823 47.5741 215.29 47.5741C215.108 47.5666 214.927 47.6014 214.76 47.6759C214.593 47.7504 214.446 47.8625 214.33 48.0035L214.308 48.0292C214.16 48.2074 213.939 48.4709 214.108 48.6402C214.286 48.8179 214.699 49.0993 214.699 49.0993C215.882 48.2404 217.433 49.2029 218.586 48.2404C218.852 48.0183 219.251 48.2849 219.502 48.6402C219.754 48.9956 219.961 49.3806 220.197 49.7508C220.98 49.5287 221.512 50.3134 222.207 50.3134C224.113 50.3875 226.02 50.3134 227.926 50.3134C228.163 50.3134 228.399 50.1061 228.636 50.0025C228.916 49.8907 229.229 49.8949 229.506 50.0143C229.783 50.1337 230.002 50.3585 230.114 50.6392C230.572 51.8534 231.148 52.342 232.05 51.8534C232.715 51.5128 233.232 51.6609 234.074 51.2018C234.917 50.7428 235.951 50.8169 236.853 50.4023Z" fill="#FB782F"/>
</g>
</svg>
