<svg width="184" height="184" viewBox="0 0 184 184" fill="none" xmlns="http://www.w3.org/2000/svg">
<g opacity="0.3">
<circle cx="132" cy="90" r="4" transform="rotate(90 132 90)" fill="#9CB0B9"/>
<circle cx="121.699" cy="118.87" r="4" transform="rotate(135 121.699 118.87)" fill="#9CB0B9"/>
<circle cx="94" cy="132" r="4" transform="rotate(-180 94 132)" fill="#9CB0B9"/>
<circle cx="65.1289" cy="121.699" r="4" transform="rotate(-135 65.1289 121.699)" fill="#9CB0B9"/>
<circle cx="52" cy="94" r="4" transform="rotate(-90 52 94)" fill="#9CB0B9"/>
<circle cx="62.3014" cy="65.1299" r="4" transform="rotate(-45 62.3014 65.1299)" fill="#9CB0B9"/>
<circle cx="90" cy="52" r="4" fill="#9CB0B9"/>
<circle cx="118.871" cy="62.3014" r="4" transform="rotate(45 118.871 62.3014)" fill="#9CB0B9"/>
<circle cx="135.84" cy="45.3317" r="3.5" transform="rotate(45 135.84 45.3317)" stroke="#9CB0B9"/>
<circle cx="150.363" cy="65.6608" r="3.5" transform="rotate(67.5 150.363 65.6608)" stroke="#9CB0B9"/>
<circle cx="156" cy="90.0005" r="3.5" transform="rotate(90 156 90.0005)" stroke="#9CB0B9"/>
<circle cx="151.895" cy="114.644" r="3.5" transform="rotate(112.5 151.895 114.644)" stroke="#9CB0B9"/>
<circle cx="138.669" cy="135.841" r="3.5" transform="rotate(135 138.669 135.841)" stroke="#9CB0B9"/>
<circle cx="118.34" cy="150.363" r="3.5" transform="rotate(157.5 118.34 150.363)" stroke="#9CB0B9"/>
<circle cx="94" cy="156" r="3.5" transform="rotate(180 94 156)" stroke="#9CB0B9"/>
<circle cx="69.3567" cy="151.894" r="3.5" transform="rotate(-157.5 69.3567 151.894)" stroke="#9CB0B9"/>
<circle cx="48.1602" cy="138.669" r="3.5" transform="rotate(-135 48.1602 138.669)" stroke="#9CB0B9"/>
<circle cx="33.6374" cy="118.34" r="3.5" transform="rotate(-112.5 33.6374 118.34)" stroke="#9CB0B9"/>
<circle cx="28" cy="94" r="3.5" transform="rotate(-90 28 94)" stroke="#9CB0B9"/>
<circle cx="32.1071" cy="69.3562" r="3.5" transform="rotate(-67.5 32.1071 69.3562)" stroke="#9CB0B9"/>
<circle cx="45.3307" cy="48.1597" r="3.5" transform="rotate(-45 45.3307 48.1597)" stroke="#9CB0B9"/>
<circle cx="65.6598" cy="33.6374" r="3.5" transform="rotate(-22.5 65.6598 33.6374)" stroke="#9CB0B9"/>
<circle cx="90" cy="28" r="3.5" stroke="#9CB0B9"/>
<circle cx="114.643" cy="32.1071" r="3.5" transform="rotate(22.5 114.643 32.1071)" stroke="#9CB0B9"/>
<circle cx="134.269" cy="14.7903" r="4" transform="rotate(30 134.269 14.7903)" fill="#9CB0B9"/>
<circle cx="152.812" cy="28.3605" r="4" transform="rotate(45 152.812 28.3605)" fill="#9CB0B9"/>
<circle cx="167.21" cy="46.2678" r="4" transform="rotate(60 167.21 46.2678)" fill="#9CB0B9"/>
<circle cx="176.484" cy="67.292" r="4" transform="rotate(75 176.484 67.292)" fill="#9CB0B9"/>
<circle cx="180" cy="90" r="4" transform="rotate(90 180 90)" fill="#9CB0B9"/>
<circle cx="177.519" cy="112.844" r="4" transform="rotate(105 177.519 112.844)" fill="#9CB0B9"/>
<circle cx="169.21" cy="134.268" r="4" transform="rotate(120 169.21 134.268)" fill="#9CB0B9"/>
<circle cx="155.64" cy="152.812" r="4" transform="rotate(135 155.64 152.812)" fill="#9CB0B9"/>
<circle cx="137.733" cy="167.211" r="4" transform="rotate(150 137.733 167.211)" fill="#9CB0B9"/>
<circle cx="116.708" cy="176.484" r="4" transform="rotate(165 116.708 176.484)" fill="#9CB0B9"/>
<circle cx="94" cy="180" r="4" transform="rotate(180 94 180)" fill="#9CB0B9"/>
<circle cx="71.1559" cy="177.519" r="4" transform="rotate(-165 71.1559 177.519)" fill="#9CB0B9"/>
<circle cx="49.7312" cy="169.21" r="4" transform="rotate(-150 49.7312 169.21)" fill="#9CB0B9"/>
<circle cx="31.1895" cy="155.64" r="4" transform="rotate(-135 31.1895 155.64)" fill="#9CB0B9"/>
<circle cx="16.7903" cy="137.732" r="4" transform="rotate(-120 16.7903 137.732)" fill="#9CB0B9"/>
<circle cx="7.51593" cy="116.707" r="4" transform="rotate(-105 7.51593 116.707)" fill="#9CB0B9"/>
<circle cx="4" cy="94" r="4" transform="rotate(-90 4 94)" fill="#9CB0B9"/>
<circle cx="6.48101" cy="71.1559" r="4" transform="rotate(-75 6.48101 71.1559)" fill="#9CB0B9"/>
<circle cx="14.7903" cy="49.7322" r="4" transform="rotate(-60 14.7903 49.7322)" fill="#9CB0B9"/>
<circle cx="28.36" cy="31.1885" r="4" transform="rotate(-45 28.36 31.1885)" fill="#9CB0B9"/>
<circle cx="46.2688" cy="16.7898" r="4" transform="rotate(-30 46.2688 16.7898)" fill="#9CB0B9"/>
<circle cx="67.2916" cy="7.51593" r="4" transform="rotate(-15 67.2916 7.51593)" fill="#9CB0B9"/>
<circle cx="90" cy="4" r="4" fill="#9CB0B9"/>
<circle cx="112.844" cy="6.48101" r="4" transform="rotate(15 112.844 6.48101)" fill="#9CB0B9"/>
</g>
</svg>
