<svg width="393" height="386" viewBox="0 0 393 386" fill="none" xmlns="http://www.w3.org/2000/svg">
<g opacity="0.1">
<path fill-rule="evenodd" clip-rule="evenodd" d="M143.603 1.56429C125.751 5.89862 112.484 18.2395 106.451 36.1217C104.378 42.2688 103.988 45.6388 104.358 54.2207C104.762 63.5807 105.313 65.7801 109.259 73.7762C114.753 84.9079 123.256 93.3129 134.227 98.4569C144.929 103.474 158.598 104.3 170.581 100.654C194.414 93.4008 210.418 67.6701 205.998 43.7136C202.943 27.1613 192.689 13.1143 178.609 6.19625C165.596 -0.196861 156.057 -1.45885 143.603 1.56429ZM31.3749 19.3609C26.078 25.44 15.02 46.8105 10.1839 60.3139C1.06731 85.7668 -2.02848 115.626 1.30121 145.956C10.0892 225.98 66.4763 309.266 141.567 353.134C170.501 370.036 199.122 380.14 233.961 385.752C238.855 386.539 237.776 385.635 227.528 380.364C214.716 373.773 198.434 361.527 186.594 349.575C172.726 335.576 165.802 323.617 160.767 304.969C157.971 294.61 157.606 291.164 157.606 275.097C157.606 259.114 157.981 255.529 160.732 245.217C164.495 231.116 175.374 208.446 183.548 197.677C196.027 181.236 212.182 168.247 232.206 158.555C252.621 148.676 267.894 145.019 288.588 145.058C306.966 145.091 319.877 147.992 335.125 155.514C355.503 165.568 368.984 178.917 378.382 198.347C385.073 212.183 387.508 223.616 386.99 238.767C386.669 248.122 386.874 250.145 387.986 248.619C390.537 245.118 393.019 230.85 393 219.794C392.93 177.476 366.934 135.502 329.002 116.459C293.679 98.7241 243.791 98.2847 207.061 115.385C186.743 124.844 163.813 144.161 152.093 161.692C149.198 166.022 146.532 169.581 146.167 169.601C145.802 169.622 144.567 166.607 143.423 162.901C137.885 144.953 121.917 126.28 99.7557 111.835C93.163 107.537 82.4324 100.52 75.9111 96.2423C46.8807 77.1989 33.9572 56.4307 33.5432 28.155C33.4555 22.1966 33.3338 17.3197 33.273 17.3162C33.2122 17.3127 32.3585 18.2337 31.3749 19.3609ZM29.704 92.5693C34.5424 116.495 44.1958 136.48 59.0291 153.285C61.7694 156.389 70.6941 164.125 78.8622 170.477C102.231 188.65 113.361 204.371 120.871 229.816C126.073 247.439 128.505 280.833 125.767 297.041C124.734 303.152 124.448 302.586 121.016 287.667C114.047 257.359 99.1456 234.032 64.7926 199.647C53.4492 188.292 41.817 175.901 38.9446 172.111C31.7308 162.592 24.6282 148.33 20.8962 135.867C15.1409 116.647 17.0145 86.0778 24.8375 71.5609L26.7767 67.9624L27.5298 76.7506C27.9439 81.5841 28.9216 88.7025 29.704 92.5693Z" fill="#7A8C9C"/>
<path d="M285.897 297.601C281.81 368.152 226.635 346.368 204.06 328.549C204.06 328.549 204.06 303.228 215.348 266.653C226.636 230.078 285.896 201.943 285.896 201.943C285.896 201.943 226.101 217.153 206.882 246.959C191.689 270.522 191.832 301.352 192.773 317.296L184.306 297.601C176.781 276.031 173.583 224.451 220.991 190.689C280.252 148.487 339.513 182.249 353.623 210.383C364.911 232.891 358.326 253.523 353.623 261.026C353.623 235.705 335.427 221.852 319.76 221.637C304.093 221.423 289.984 227.05 285.897 297.601Z" fill="#7A8C9C"/>
</g>
</svg>
